<svg width="288" height="437" viewBox="0 0 288 437" fill="none" xmlns="http://www.w3.org/2000/svg">
<g clip-path="url(#clip0_80_1232)">
<path d="M254.39 17.76H33.57V397.52H254.39V17.76Z" fill="#2F365C"/>
<path d="M249.94 85.8901C249.94 90.9401 249 95.7701 247.28 100.21C241.53 115.11 227.07 125.68 210.14 125.68C202.15 125.68 194.71 123.33 188.48 119.27C185.6 117.4 182.98 115.17 180.69 112.65C174.26 105.57 170.35 96.1901 170.35 85.8901C170.35 82.9701 170.66 80.1301 171.26 77.3901C175.15 59.4901 191.09 46.0901 210.14 46.0901C232.12 46.0901 249.94 63.9101 249.94 85.8901Z" fill="#FCEBC4"/>
<path d="M219.27 73.5101C224.848 73.5101 229.37 68.9881 229.37 63.4101C229.37 57.832 224.848 53.3101 219.27 53.3101C213.692 53.3101 209.17 57.832 209.17 63.4101C209.17 68.9881 213.692 73.5101 219.27 73.5101Z" fill="#E7D5B0"/>
<path d="M235.14 83.38C238.564 83.38 241.34 80.6041 241.34 77.18C241.34 73.7558 238.564 70.98 235.14 70.98C231.716 70.98 228.94 73.7558 228.94 77.18C228.94 80.6041 231.716 83.38 235.14 83.38Z" fill="#E7D5B0"/>
<path d="M184.6 89.4101H184.56C171.65 89.4101 161.14 99.4901 160.61 112.37C160.59 112.76 160.59 113.1 160.59 113.38C160.59 115.8 160.95 118.18 161.67 120.47H108.49C100.74 120.47 94.47 114.18 94.47 106.44C94.47 98.7001 100.74 92.4201 108.49 92.4201C109.74 92.4201 110.95 92.5801 112.1 92.8901C112.61 86.3801 115.55 80.5601 120.02 76.3301C124.6 72.0001 130.78 69.3401 137.59 69.3401H137.78C145.04 69.3901 151.58 72.4701 156.18 77.3801C157.04 78.2801 157.83 79.2401 158.54 80.2601C160.96 79.2701 163.61 78.7301 166.39 78.7301C174.21 78.7301 181.03 83.0401 184.6 89.4101V89.4101Z" fill="#C4C4C4"/>
<path d="M249.94 119.6C249.94 125.92 245.34 131.16 239.31 132.17C238.62 132.29 237.91 132.35 237.19 132.35H184.56C178.58 132.35 173.24 129.57 169.76 125.24C169.17 124.5 168.64 123.72 168.16 122.9C167.7 122.12 167.3 121.3 166.96 120.45C166.08 118.26 165.59 115.88 165.59 113.38C165.59 113.13 165.59 112.89 165.61 112.64C166 102.5 174.34 94.4101 184.56 94.4101C185.26 94.4101 185.95 94.4501 186.63 94.5201C187.54 94.6201 188.44 94.7801 189.3 95.0101C190.12 95.2201 190.92 95.4801 191.7 95.8001C191.77 95.7001 191.84 95.6001 191.93 95.5001C196.14 89.6701 202.99 85.8801 210.74 85.8801C220.42 85.8801 228.71 91.7901 232.2 100.2C233.13 102.41 233.71 104.79 233.91 107.28C234.96 107 236.06 106.85 237.19 106.85C237.91 106.85 238.62 106.91 239.31 107.03C245.34 108.04 249.94 113.28 249.94 119.6Z" fill="#D8D8D8"/>
<path d="M102.75 187.73H44.52V397.51H102.75V187.73Z" fill="#666666"/>
<path d="M143.98 243.45H85.75V397.51H143.98V243.45Z" fill="#4F4F4F"/>
<path d="M181.98 156.89H123.75V397.52H181.98V156.89Z" fill="#666666"/>
<path d="M241.75 228.43H165.51V397.51H241.75V228.43Z" fill="#393A3A"/>
<path d="M182.11 243.32H171.68V260.75H182.11V243.32Z" fill="#0E0E0E"/>
<path d="M200.52 243.32H190.09V260.75H200.52V243.32Z" fill="#0E0E0E"/>
<path d="M218.93 243.32H208.5V260.75H218.93V243.32Z" fill="#0E0E0E"/>
<path d="M237.34 243.32H226.91V260.75H237.34V243.32Z" fill="#0E0E0E"/>
<path d="M182.11 270.67H171.68V288.1H182.11V270.67Z" fill="#0E0E0E"/>
<path d="M200.52 270.67H190.09V288.1H200.52V270.67Z" fill="#0E0E0E"/>
<path d="M218.93 270.67H208.5V288.1H218.93V270.67Z" fill="#F9E8A0"/>
<path d="M237.34 270.67H226.91V288.1H237.34V270.67Z" fill="#0E0E0E"/>
<path d="M182.11 298.03H171.68V315.46H182.11V298.03Z" fill="#0E0E0E"/>
<path d="M200.52 298.03H190.09V315.46H200.52V298.03Z" fill="#0E0E0E"/>
<path d="M218.93 298.03H208.5V315.46H218.93V298.03Z" fill="#0E0E0E"/>
<path d="M237.34 298.03H226.91V315.46H237.34V298.03Z" fill="#0E0E0E"/>
<path d="M182.11 325.38H171.68V342.81H182.11V325.38Z" fill="#0E0E0E"/>
<path d="M200.52 325.38H190.09V342.81H200.52V325.38Z" fill="#F9E8A0"/>
<path d="M218.93 325.38H208.5V342.81H218.93V325.38Z" fill="#0E0E0E"/>
<path d="M237.34 325.38H226.91V342.81H237.34V325.38Z" fill="#0E0E0E"/>
<path d="M182.11 352.73H171.68V370.16H182.11V352.73Z" fill="#0E0E0E"/>
<path d="M200.52 352.73H190.09V370.16H200.52V352.73Z" fill="#0E0E0E"/>
<path d="M218.93 352.73H208.5V370.16H218.93V352.73Z" fill="#0E0E0E"/>
<path d="M237.34 352.73H226.91V370.16H237.34V352.73Z" fill="#0E0E0E"/>
<path d="M182.11 380.08H171.68V397.51H182.11V380.08Z" fill="#0E0E0E"/>
<path d="M200.52 380.08H190.09V397.51H200.52V380.08Z" fill="#0E0E0E"/>
<path d="M218.93 380.08H208.5V397.51H218.93V380.08Z" fill="#0E0E0E"/>
<path d="M237.34 380.08H226.91V397.51H237.34V380.08Z" fill="#0E0E0E"/>
<path d="M54.86 184H49.22V187.73H54.86V184Z" fill="#7E7E7F"/>
<path d="M52.04 107.65C52.57 107.65 52.99 108.08 52.99 108.6V184H51.09V108.6C51.09 108.07 51.52 107.65 52.04 107.65V107.65Z" fill="white"/>
<path d="M272.15 17.75V0H15.81V415.27H272.15V397.52V216.51V198.76V17.75ZM33.56 17.75H135.1V198.76H33.56V17.75V17.75ZM33.56 397.52V216.51H135.1V397.52H33.56V397.52ZM254.39 397.52H152.85V216.51H254.39V397.52ZM254.39 198.76H152.85V17.75H254.39V198.76Z" fill="white"/>
<path d="M287.96 415.27H0V436.96H287.96V415.27Z" fill="#C9C9C9"/>
<path d="M254.39 17.75H33.57V26.01H254.39V17.75Z" fill="#1C1D1D"/>
<path d="M254.39 32.29H33.57V40.55H254.39V32.29Z" fill="#1C1D1D"/>
<path d="M254.39 46.8301H33.57V55.0901H254.39V46.8301Z" fill="#1C1D1D"/>
<path d="M254.39 61.3799H33.57V69.6399H254.39V61.3799Z" fill="#1C1D1D"/>
<path d="M254.39 75.9199H33.57V84.1799H254.39V75.9199Z" fill="#1C1D1D"/>
<path d="M254.39 90.46H33.57V98.72H254.39V90.46Z" fill="#1C1D1D"/>
<path d="M254.39 105H33.57V113.26H254.39V105Z" fill="#1C1D1D"/>
<path d="M254.39 119.54H33.57V127.8H254.39V119.54Z" fill="#1C1D1D"/>
<path d="M254.39 134.08H33.57V142.34H254.39V134.08Z" fill="#1C1D1D"/>
<path d="M254.39 148.63H33.57V156.89H254.39V148.63Z" fill="#1C1D1D"/>
<path d="M254.39 17.75V228.43" stroke="#1C1D1D" stroke-width="2" stroke-miterlimit="10"/>
<path d="M259.33 225.98C259.33 223.252 257.118 221.04 254.39 221.04C251.662 221.04 249.45 223.252 249.45 225.98V250.78C249.45 253.508 251.662 255.72 254.39 255.72C257.118 255.72 259.33 253.508 259.33 250.78V225.98Z" fill="#A57723"/>
</g>
<defs>
<clipPath id="clip0_80_1232">
<rect width="287.96" height="436.96" fill="white"/>
</clipPath>
</defs>
</svg>
