<svg width="288" height="437" viewBox="0 0 288 437" fill="none" xmlns="http://www.w3.org/2000/svg">
<g clip-path="url(#clip0_182_308)">
<path d="M254.39 17.75H33.56V303.15H254.39V17.75Z" fill="url(#paint0_linear_182_308)"/>
<path d="M254.39 303.15H33.56V397.52H254.39V303.15Z" fill="url(#paint1_linear_182_308)"/>
<path d="M147.79 141.89C147.79 150.06 141.85 156.83 134.05 158.13C133.16 158.29 132.24 158.36 131.31 158.36H63.3C55.57 158.36 48.67 154.77 44.17 149.17C43.41 148.21 42.72 147.21 42.1 146.15C41.51 145.14 40.99 144.08 40.55 142.98C39.41 140.15 38.78 137.07 38.78 133.84C38.78 133.52 38.78 133.21 38.81 132.88C39.31 119.78 50.09 109.32 63.3 109.32C64.2 109.32 65.1 109.37 65.98 109.46C67.16 109.59 68.32 109.8 69.43 110.09C70.49 110.36 71.52 110.7 72.53 111.11C72.62 110.98 72.71 110.85 72.83 110.72C78.27 103.19 87.12 98.29 97.14 98.29C109.65 98.29 120.36 105.93 124.87 116.8C126.07 119.66 126.82 122.73 127.08 125.95C128.44 125.59 129.86 125.39 131.32 125.39C132.25 125.39 133.17 125.47 134.06 125.62C141.85 126.93 147.8 133.7 147.8 141.86L147.79 141.89Z" fill="white"/>
<path d="M239.09 125.48C239.09 129.91 235.87 133.58 231.64 134.29C231.16 134.37 230.66 134.42 230.15 134.42H193.26C189.07 134.42 185.32 132.47 182.89 129.44C182.48 128.92 182.1 128.37 181.77 127.8C181.45 127.25 181.17 126.68 180.93 126.08C180.31 124.54 179.97 122.88 179.97 121.12C179.97 120.94 179.97 120.78 179.98 120.6C180.25 113.49 186.1 107.82 193.26 107.82C193.75 107.82 194.23 107.85 194.71 107.9C195.35 107.97 195.98 108.08 196.58 108.24C197.15 108.39 197.72 108.57 198.26 108.79C198.31 108.72 198.36 108.65 198.42 108.58C201.37 104.49 206.17 101.84 211.61 101.84C218.4 101.84 224.21 105.98 226.65 111.88C227.3 113.43 227.71 115.1 227.85 116.84C228.59 116.64 229.36 116.54 230.15 116.54C230.65 116.54 231.15 116.58 231.64 116.67C235.87 117.38 239.09 121.05 239.09 125.48Z" fill="white"/>
<path d="M113.04 326.55H45.05C44.22 326.55 43.55 325.88 43.55 325.05C43.55 324.22 44.22 323.55 45.05 323.55H113.04C113.87 323.55 114.54 324.22 114.54 325.05C114.54 325.88 113.87 326.55 113.04 326.55Z" fill="#436CA8"/>
<path d="M141.64 366.18H73.65C72.82 366.18 72.15 365.51 72.15 364.68C72.15 363.85 72.82 363.18 73.65 363.18H141.64C142.47 363.18 143.14 363.85 143.14 364.68C143.14 365.51 142.47 366.18 141.64 366.18Z" fill="#436CA8"/>
<path d="M75.17 394.2H22.81C21.98 394.2 21.31 393.53 21.31 392.7C21.31 391.87 21.98 391.2 22.81 391.2H75.17C76 391.2 76.67 391.87 76.67 392.7C76.67 393.53 76 394.2 75.17 394.2Z" fill="#436CA8"/>
<path d="M237.62 339.77H169.63C168.8 339.77 168.13 339.1 168.13 338.27C168.13 337.44 168.8 336.77 169.63 336.77H237.62C238.45 336.77 239.12 337.44 239.12 338.27C239.12 339.1 238.45 339.77 237.62 339.77Z" fill="#436CA8"/>
<path d="M269.12 311.73H201.13C200.3 311.73 199.63 311.06 199.63 310.23C199.63 309.4 200.3 308.73 201.13 308.73H269.12C269.95 308.73 270.62 309.4 270.62 310.23C270.62 311.06 269.95 311.73 269.12 311.73Z" fill="#436CA8"/>
<path d="M197.33 383.74H265.31" stroke="#436CA8" stroke-width="3" stroke-linecap="round" stroke-linejoin="round"/>
<path d="M272.14 260.83C263.94 255.38 252.67 255.58 244.58 262.47L196.87 303.14H272.14V260.82V260.83Z" fill="#436CA8"/>
<path d="M15.81 303.15H163.7L115.99 262.48C105.13 253.22 88.53 256.04 81.34 268.37L80.24 270.26C76.11 277.34 66.58 278.96 60.34 273.64L37.93 254.54C31.5 249.06 23.41 247.09 15.8 248.25V303.16L15.81 303.15Z" fill="#436CA8"/>
<path d="M287.96 415.27H0V436.96H287.96V415.27Z" fill="#C8C9C9"/>
<path d="M272.15 17.75V0H15.81V415.27H272.15V397.52V216.51V198.76V17.75ZM33.56 17.75H135.1V80.56H33.56V17.75ZM33.56 397.52V98.31H135.1V397.52H33.56ZM254.39 397.52H152.85V98.31H254.39V397.52ZM254.39 80.56H152.85V17.75H254.39V80.56Z" fill="#9ABED1"/>
<path d="M275.44 399.93H181.62V415.27H275.44V399.93Z" fill="#436CA8"/>
<path d="M195.12 399.93H188.84V415.27H195.12V399.93Z" fill="white"/>
<path d="M267.31 387.41H189.57C189.15 387.41 188.81 387.75 188.81 388.17C188.81 388.59 189.15 388.93 189.57 388.93H267.31C267.73 388.93 268.07 388.59 268.07 388.17C268.07 387.75 267.73 387.41 267.31 387.41Z" fill="#FF9D3B"/>
<path d="M267.31 373.59H189.57C189.15 373.59 188.81 373.93 188.81 374.35C188.81 374.77 189.15 375.11 189.57 375.11H267.31C267.73 375.11 268.07 374.77 268.07 374.35C268.07 373.93 267.73 373.59 267.31 373.59Z" fill="#FF9D3B"/>
<path d="M267.08 375.11H189.8V387.41H267.08V375.11Z" fill="white"/>
<path d="M264.73 388.93H192.33V399.93H264.73V388.93Z" fill="#FF6161"/>
<path d="M202.75 388.93H197.9V399.93H202.75V388.93Z" fill="white"/>
</g>
<defs>
<linearGradient id="paint0_linear_182_308" x1="143.98" y1="303.15" x2="143.98" y2="17.75" gradientUnits="userSpaceOnUse">
<stop stop-color="#D1D8FF"/>
<stop offset="0.15" stop-color="#B7D0FF"/>
<stop offset="0.47" stop-color="#77BDFF"/>
<stop offset="0.93" stop-color="#109FFF"/>
<stop offset="1" stop-color="#009BFF"/>
</linearGradient>
<linearGradient id="paint1_linear_182_308" x1="143.98" y1="397.52" x2="143.98" y2="303.15" gradientUnits="userSpaceOnUse">
<stop stop-color="#439DE0"/>
<stop offset="0.22" stop-color="#479EE1"/>
<stop offset="0.46" stop-color="#54A1E7"/>
<stop offset="0.72" stop-color="#6BA7F0"/>
<stop offset="0.98" stop-color="#8AAFFD"/>
<stop offset="1" stop-color="#8DB0FF"/>
</linearGradient>
<clipPath id="clip0_182_308">
<rect width="287.96" height="436.96" fill="white"/>
</clipPath>
</defs>
</svg>
