<svg width="288" height="438" viewBox="0 0 288 438" fill="none" xmlns="http://www.w3.org/2000/svg">
<g clip-path="url(#clip0_263_308)">
<path d="M254.39 17.75H33.56V238.58H254.39V17.75Z" fill="url(#paint0_linear_263_308)"/>
<path d="M272.14 415.27V0H15.81V415.27H272.14ZM33.56 17.75H254.39V397.52H33.56V17.75Z" fill="#939393"/>
<path d="M287.96 415.54H0V437.23H287.96V415.54Z" fill="#C8C9C9"/>
<path d="M254.39 238.58H33.56V397.52H254.39V238.58Z" fill="url(#paint1_linear_263_308)"/>
<path d="M143.98 207.63C162.299 207.63 177.15 192.779 177.15 174.46C177.15 156.141 162.299 141.29 143.98 141.29C125.661 141.29 110.81 156.141 110.81 174.46C110.81 192.779 125.661 207.63 143.98 207.63Z" fill="#FFBFB0"/>
<path d="M112.46 397.18C111.65 397.18 110.99 396.54 110.96 395.74C110.93 394.93 111.55 394.25 112.36 394.2C118.49 393.79 128 393.15 137.94 392.48C132.4 392.48 127.12 392.5 122.71 392.5L111.51 392.52C109.43 392.52 108.21 392.52 107.47 392.49C107.39 392.49 107.34 392.5 107.31 392.5V392.48C106.42 392.43 106.31 392.32 106.07 392.08C105.79 391.8 105.63 391.42 105.63 391.02C105.63 389.94 106.4 389.64 107.18 389.53C107.4 389.5 107.62 389.48 107.82 389.47L110.1 389.3C112.06 389.16 114.86 388.95 118.22 388.71C123.44 388.33 130.02 387.86 136.91 387.37C126.24 387.37 115.47 387.37 107.23 387.38C106.42 387.38 105.76 386.75 105.73 385.95C105.7 385.15 106.31 384.47 107.11 384.4L138.6 381.95H112.02C111.19 381.95 110.52 381.28 110.52 380.46C110.52 379.52 110.77 379.18 112.02 378.97H112.04C112.66 378.86 113.51 378.79 114.69 378.68C116.47 378.52 119.02 378.3 122.05 378.05C126.73 377.66 132.59 377.19 138.65 376.7C128.07 376.73 116.71 376.77 107.18 376.81C106.78 376.81 106.4 376.65 106.12 376.38C105.84 376.1 105.68 375.72 105.68 375.32C105.68 373.93 106.9 373.82 108.08 373.71C108.76 373.65 109.75 373.57 111 373.47C113.48 373.27 117 373.01 121.11 372.71C124.7 372.45 128.75 372.15 132.97 371.85C128.58 371.85 124.48 371.85 121.04 371.85C118.06 371.85 115.59 371.85 113.85 371.85H111.83C111.11 371.85 109.63 371.83 109.63 370.34C109.63 368.94 110.65 368.86 112.5 368.72C113.46 368.65 114.86 368.54 116.6 368.42C120.07 368.17 124.91 367.84 130.37 367.47C131.21 367.41 132.06 367.35 132.93 367.3C128.25 367.3 123.87 367.3 120.19 367.3C113.79 367.3 110.96 367.29 109.63 367.2C109.48 367.21 109.4 367.22 109.4 367.22V367.19C108.56 367.12 108.44 367 108.23 366.79C107.81 366.38 107.68 365.76 107.88 365.21C108.08 364.66 108.59 364.28 109.18 364.24C116.69 363.69 126.49 362.97 136.25 362.24H112.26C111.45 362.24 110.79 361.6 110.76 360.8C110.73 360 111.35 359.31 112.16 359.26C119.34 358.77 128.53 358.14 137.82 357.51C127.65 357.51 117.5 357.52 109.66 357.53C108.85 357.53 108.19 356.9 108.16 356.09C108.13 355.29 108.74 354.6 109.55 354.54L137.2 352.49H134.72C116.51 352.51 110.42 352.52 108.2 352.36C108.13 352.36 108.08 352.37 108.05 352.38V352.35C107.07 352.27 106.95 352.14 106.77 351.96C106.49 351.68 106.33 351.3 106.33 350.9C106.33 349.51 107.59 349.41 108.52 349.34C109.05 349.3 109.82 349.24 110.8 349.17C112.76 349.03 115.56 348.84 118.92 348.61C122.87 348.34 127.6 348.02 132.65 347.68C120.73 347.69 116.19 347.67 114.35 347.53C114.18 347.54 114.09 347.55 114.09 347.55V347.51C113.2 347.42 113.08 347.3 112.91 347.13C112.5 346.72 112.36 346.11 112.56 345.56C112.76 345.01 113.26 344.63 113.84 344.58C120.36 344.03 131.06 343.12 141.69 342.21C130.62 342.23 119.38 342.25 112.6 342.27C111.79 342.27 111.13 341.64 111.1 340.84C111.07 340.04 111.68 339.35 112.48 339.29C121.95 338.56 133.19 337.69 143.73 336.86H113.5C112.67 336.86 112 336.19 112 335.37C112 334.42 112.28 334.09 113.5 333.88H113.54C114.14 333.78 114.97 333.71 116.1 333.62C117.83 333.48 120.31 333.29 123.29 333.06C126.69 332.8 130.75 332.51 135.08 332.19C126.46 332.19 118.38 332.21 113.01 332.22C112.61 332.22 112.23 332.06 111.95 331.78C111.67 331.5 111.51 331.12 111.51 330.72C111.51 329.65 112.27 329.34 113.01 329.23H113.03C113.24 329.2 113.44 329.18 113.62 329.16C114.1 329.12 114.8 329.07 115.7 329C117.48 328.86 120.03 328.67 123.08 328.45C126.66 328.19 130.93 327.87 135.49 327.54C121.22 327.58 115.98 327.57 113.92 327.41L113.58 327.43V327.38C112.71 327.29 112.58 327.17 112.42 327C112.14 326.72 111.98 326.34 111.98 325.94C111.98 325.16 112.59 324.51 113.37 324.45L138.06 322.68H111.78C110.95 322.68 110.28 322.01 110.28 321.19C110.28 320.12 111.05 319.81 111.78 319.7H111.81C112.01 319.67 112.2 319.65 112.38 319.63L114.42 319.46C116.18 319.32 118.69 319.12 121.7 318.88C126.13 318.53 131.63 318.1 137.43 317.64C131.5 317.66 125.84 317.67 121.24 317.67C114.91 317.67 112.13 317.67 110.82 317.59L110.62 317.61V317.58C109.77 317.51 109.65 317.39 109.44 317.18C109.02 316.77 108.89 316.15 109.09 315.61C109.29 315.06 109.8 314.68 110.38 314.64L133.45 312.84C117.77 312.87 112.14 312.86 109.97 312.7C109.73 312.72 109.6 312.73 109.6 312.73V312.67C108.73 312.59 108.61 312.46 108.44 312.3C108.02 311.89 107.89 311.27 108.09 310.72C108.3 310.17 108.81 309.79 109.39 309.75C115.75 309.32 125.69 308.65 136.02 307.94H109.15C108.32 307.94 107.65 307.27 107.65 306.45C107.65 305.08 108.92 304.95 109.76 304.87C110.26 304.82 110.99 304.75 111.92 304.67C113.77 304.51 116.41 304.29 119.57 304.03C124.83 303.6 131.55 303.06 138.52 302.51H110.61C109.8 302.51 109.14 301.88 109.11 301.08C109.08 300.28 109.69 299.6 110.49 299.53L135.55 297.52C118.28 297.56 112.5 297.55 110.4 297.37C110.34 297.37 110.29 297.37 110.27 297.38V297.36C109.34 297.27 109.21 297.14 109.02 296.96C108.74 296.68 108.58 296.3 108.58 295.9C108.58 294.5 109.7 294.42 111.25 294.32C112.07 294.26 113.27 294.18 114.77 294.09C117.77 293.89 121.99 293.62 126.84 293.31C130.21 293.09 133.98 292.85 137.91 292.6C129.94 292.62 121.9 292.65 114.88 292.68C114.08 292.68 113.42 292.05 113.38 291.25C113.34 290.45 113.95 289.76 114.75 289.7C123.59 288.95 134.15 288.04 143.96 287.18C132.42 287.19 120.46 287.21 113.37 287.22C112.57 287.22 111.9 286.59 111.87 285.79C111.84 284.99 112.45 284.3 113.25 284.24L142.57 281.92H114.54C113.71 281.92 113.04 281.25 113.04 280.43C113.04 279.02 113.59 278.97 117.2 278.64C118.98 278.47 121.53 278.25 124.59 277.99C129.51 277.57 135.76 277.06 142.27 276.53C134.5 276.55 126.93 276.56 121.15 276.57C115.09 276.57 112.37 276.57 111.07 276.5C111.02 276.5 110.99 276.5 110.96 276.51V276.49C109.99 276.42 109.88 276.3 109.66 276.09C109.38 275.81 109.22 275.43 109.22 275.03C109.22 273.65 110.51 273.54 111.37 273.47C111.88 273.43 112.62 273.37 113.57 273.3C115.45 273.15 118.14 272.95 121.37 272.71C125.88 272.37 131.44 271.97 137.32 271.54C132.77 271.54 128.39 271.55 124.5 271.56C115.15 271.56 111.36 271.56 109.71 271.46C109.52 271.47 109.42 271.48 109.42 271.48V271.44C108.56 271.36 108.44 271.24 108.25 271.05C107.84 270.64 107.7 270.02 107.9 269.48C108.1 268.93 108.61 268.55 109.19 268.51C117.09 267.9 127.51 267.1 137.75 266.3H108.77C107.94 266.3 107.27 265.63 107.27 264.81C107.27 263.43 108.55 263.31 109.49 263.23C110.05 263.18 110.87 263.11 111.91 263.03C113.98 262.86 116.94 262.64 120.47 262.37C125.63 261.98 132.01 261.51 138.66 261.03C121.55 261.06 115.57 261.05 113.34 260.89C113.24 260.89 113.17 260.91 113.13 260.91V260.87C112.13 260.79 112.01 260.67 111.84 260.49C111.56 260.21 111.4 259.83 111.4 259.43C111.4 258.06 112.68 257.94 113.45 257.87C113.9 257.83 114.56 257.77 115.41 257.7C117.09 257.55 119.49 257.35 122.37 257.11C126.31 256.78 131.15 256.38 136.27 255.96C118.26 256 112.31 256 110.17 255.81L109.96 255.83V255.79C109.1 255.7 108.98 255.57 108.8 255.4C108.52 255.12 108.36 254.74 108.36 254.34C108.36 253.56 108.97 252.91 109.75 252.85L131.81 251.28C127.44 251.3 123.4 251.31 120.09 251.31C115.09 251.31 112.8 251.32 111.66 251.24H111.51C110.68 251.16 110.56 251.04 110.34 250.82C109.92 250.41 109.79 249.79 109.99 249.25C110.19 248.7 110.7 248.32 111.28 248.28L139.07 246.15H109.64C108.81 246.15 108.14 245.48 108.14 244.66C108.14 243.27 109.47 243.15 110.27 243.07C110.78 243.02 111.53 242.96 112.48 242.89C114.36 242.75 117.05 242.55 120.28 242.33C123.53 242.11 127.32 241.85 131.38 241.59H108.73C107.9 241.59 107.23 240.92 107.23 240.1C107.23 239.28 107.9 238.61 108.73 238.61H178.41C179.22 238.61 179.88 239.25 179.91 240.06C179.93 240.87 179.31 241.55 178.5 241.6C170.83 242.08 162.03 242.63 153.34 243.18H178.16C178.97 243.18 179.63 243.81 179.66 244.62C179.69 245.42 179.08 246.1 178.28 246.17L151.21 248.24C165.87 248.19 171.36 248.2 173.55 248.33L174.01 248.3V248.37C174.89 248.45 175.01 248.57 175.17 248.73C175.59 249.14 175.72 249.76 175.52 250.31C175.32 250.86 174.81 251.24 174.22 251.28L150.64 252.96C158.82 252.94 167.11 252.9 174.32 252.87C175.12 252.87 175.78 253.5 175.82 254.3C175.85 255.1 175.25 255.79 174.44 255.85C167.04 256.45 157.23 257.25 147.62 258.04C158.39 258.02 169.98 257.99 179.7 257.96C180.1 257.96 180.48 258.12 180.76 258.4C181.04 258.68 181.2 259.06 181.2 259.46C181.2 260.84 179.88 260.96 179.09 261.03C178.6 261.07 177.89 261.13 176.98 261.21C175.17 261.35 172.57 261.55 169.44 261.79C163.67 262.22 156.08 262.78 148.23 263.35H175.61C176.44 263.35 177.11 264.02 177.11 264.84C177.11 265.91 176.35 266.21 175.61 266.33H175.59C175.38 266.37 175.17 266.38 174.99 266.4C174.5 266.44 173.79 266.5 172.88 266.58C171.07 266.73 168.47 266.93 165.36 267.18C160.38 267.57 154.07 268.07 147.5 268.58C149.97 268.58 152.39 268.57 154.7 268.56C161.46 268.54 167.66 268.53 172.18 268.53C176.04 268.53 178.03 268.53 179.11 268.57C179.33 268.55 179.45 268.55 179.45 268.55V268.59C180.29 268.65 180.4 268.77 180.62 268.98C181.04 269.39 181.17 270.01 180.97 270.56C180.76 271.11 180.26 271.49 179.67 271.53C171.79 272.09 161.46 272.84 151.22 273.58C157.55 273.57 163.6 273.55 168.48 273.55C174.98 273.55 177.9 273.55 179.29 273.62C179.48 273.6 179.58 273.6 179.58 273.6V273.64C180.44 273.71 180.56 273.83 180.76 274.03C181.17 274.44 181.31 275.06 181.11 275.6C180.91 276.15 180.4 276.53 179.82 276.57C170.66 277.29 159.79 278.16 149.58 278.98H180.37C181.18 278.98 181.84 279.61 181.87 280.41C181.9 281.21 181.29 281.89 180.49 281.96L151.81 284.23C156.97 284.23 161.84 284.23 165.81 284.23C172.71 284.23 176.32 284.393 176.64 284.72C176.92 285 177.08 285.38 177.08 285.78C177.08 287.18 176.4 287.25 173.12 287.58C171.46 287.75 169.08 287.97 166.23 288.24C161.87 288.64 156.39 289.13 150.65 289.64C170.383 289.6 180.453 289.78 180.86 290.18C181.14 290.46 181.3 290.84 181.3 291.24C181.3 292.65 180.13 292.75 178.51 292.89C177.58 292.97 176.24 293.08 174.55 293.2C171.2 293.45 166.52 293.77 161.2 294.12C159.2 294.25 157.11 294.39 154.97 294.53C161.74 294.51 168.45 294.48 174.42 294.46C175.22 294.46 175.88 295.09 175.92 295.89C175.95 296.69 175.35 297.38 174.54 297.44L147.95 299.57H176.62C177.43 299.57 178.09 300.2 178.12 301C178.15 301.8 177.54 302.48 176.74 302.55C169.43 303.12 157.33 304.06 145.39 305.01H177.46C178.29 305.01 178.96 305.68 178.96 306.5C178.96 307.88 177.63 308 176.83 308.08C176.33 308.13 175.59 308.19 174.65 308.26C172.79 308.41 170.13 308.6 166.94 308.83C162.77 309.13 157.7 309.49 152.31 309.86C159.53 309.84 166.74 309.82 173.11 309.79C173.88 309.76 174.58 310.42 174.61 311.22C174.64 312.02 174.03 312.71 173.23 312.77L148.91 314.67C155.27 314.65 161.33 314.64 166.1 314.63C171.79 314.63 174.37 314.63 175.62 314.7C175.76 314.69 175.83 314.68 175.83 314.68V314.71C176.68 314.78 176.8 314.9 177.01 315.11C177.43 315.52 177.56 316.14 177.36 316.68C177.16 317.23 176.65 317.61 176.07 317.65C168.69 318.23 159.03 318.98 149.46 319.73H179.8C180.61 319.73 181.27 320.37 181.3 321.17C181.33 321.97 180.71 322.66 179.91 322.71L154.87 324.5C161.02 324.48 166.7 324.45 170.9 324.44C174.84 324.44 176.78 324.43 177.8 324.49C177.93 324.49 177.99 324.48 177.99 324.48V324.51C178.81 324.57 178.93 324.69 179.16 324.91C179.58 325.32 179.71 325.94 179.51 326.49C179.31 327.04 178.8 327.42 178.21 327.46C171.47 327.95 162.84 328.57 154.09 329.2C158.76 329.2 163.15 329.2 166.8 329.2C172.38 329.2 175.03 329.2 176.35 329.28L176.72 329.25V329.3C177.57 329.37 177.68 329.48 177.88 329.68C178.3 330.09 178.43 330.71 178.23 331.26C178.03 331.81 177.52 332.19 176.93 332.23C169.76 332.73 161.53 333.31 153.41 333.88H179.98C180.81 333.88 181.48 334.55 181.48 335.37C181.48 336.74 180.21 336.87 179.38 336.95C178.88 337 178.15 337.07 177.22 337.15C175.37 337.31 172.74 337.53 169.57 337.79C164.62 338.2 158.38 338.69 151.86 339.21C156.76 339.21 161.38 339.21 165.18 339.21C170.92 339.21 173.49 339.21 174.72 339.3C175.71 339.37 175.83 339.49 176.05 339.71C176.33 339.99 176.49 340.37 176.49 340.77C176.49 342.16 175.96 342.2 172.5 342.52C170.83 342.67 168.44 342.89 165.58 343.14C160.69 343.57 154.4 344.11 147.9 344.67C158.49 344.65 169.9 344.61 179.45 344.57C180.26 344.57 180.92 345.21 180.95 346.01C180.98 346.82 180.36 347.5 179.55 347.55C171.45 348.08 160.87 348.78 150.35 349.49C157.27 349.47 165.02 349.45 173.61 349.43C176.02 349.43 177.42 349.42 178.27 349.45L178.65 349.42V349.47C179.48 349.52 179.59 349.63 179.82 349.86C180.24 350.27 180.37 350.89 180.17 351.44C179.97 351.99 179.46 352.37 178.88 352.41L150.25 354.54C157.36 354.54 164.2 354.54 169.58 354.54C172.91 354.54 175.69 354.54 177.63 354.54H179.89C180.75 354.55 182.18 354.56 182.18 356.05C182.18 357.44 180.88 357.54 180.02 357.6L177.84 357.76C175.97 357.89 173.29 358.08 170.08 358.3C166.04 358.58 161.14 358.92 155.94 359.27H175.77C176.6 359.27 177.27 359.94 177.27 360.76C177.27 361.83 176.51 362.13 175.77 362.25H175.75C175.54 362.28 175.33 362.3 175.15 362.32C174.66 362.36 173.94 362.42 173.03 362.49C171.21 362.63 168.61 362.83 165.49 363.07C160.82 363.42 154.97 363.86 148.84 364.32C160.27 364.3 171.53 364.28 178.54 364.26C178.94 364.26 179.32 364.42 179.6 364.7C179.88 364.98 180.04 365.36 180.04 365.76C180.04 366.8 179.39 367.11 178.54 367.23V367.25H178.41C178.16 367.28 177.89 367.3 177.61 367.32L164.69 368.19C161.54 368.4 157.91 368.64 154.07 368.9C161.53 368.9 168.74 368.9 174.54 368.89C174.94 368.89 175.32 369.05 175.6 369.33C175.88 369.61 176.04 369.99 176.04 370.39C176.04 371.37 175.66 371.69 174.54 371.87V371.89H174.43C173.96 371.96 173.38 372 172.66 372.06C171.37 372.16 169.52 372.3 167.24 372.46C162.69 372.79 156.46 373.23 149.73 373.71C149.51 373.73 149.29 373.74 149.08 373.76C173.59 373.71 173.64 373.76 174.21 374.33C174.49 374.61 174.65 374.99 174.65 375.39C174.65 376.79 173.99 376.85 170.83 377.13C169.26 377.27 167.02 377.46 164.31 377.68C159.73 378.06 153.82 378.54 147.64 379.04H176.96C177.77 379.04 178.43 379.67 178.46 380.47C178.49 381.27 177.88 381.95 177.08 382.02L145.82 384.46C153.8 384.46 161.59 384.46 167.59 384.46H177.97C178.15 384.47 178.36 384.47 178.58 384.49H178.66C179.44 384.56 180.27 384.84 180.27 385.97C180.27 386.75 179.66 387.4 178.88 387.46C170.69 388.04 159.99 388.8 149.38 389.55C152.73 389.55 156.01 389.55 159.1 389.55C172.19 389.55 177.14 389.55 179.14 389.66C179.23 389.66 179.3 389.64 179.34 389.64V389.68C180.37 389.75 180.49 389.87 180.67 390.05C180.95 390.33 181.11 390.71 181.11 391.11C181.11 392.5 179.78 392.61 178.99 392.68C178.49 392.72 177.77 392.78 176.84 392.85C175 392.99 172.38 393.18 169.23 393.4C166.03 393.63 162.29 393.89 158.28 394.16C179.58 394.13 179.65 394.2 180.16 394.71L179.1 395.77L178.89 397.24C177.14 397.08 138.21 397.16 112.47 397.26L112.46 397.18Z" fill="url(#paint2_linear_263_308)"/>
<path d="M192.09 326.94C190.92 328.06 190.26 329.61 190.26 331.23V415.53H226.22V319.09C226.22 313.98 220.99 310.41 216.3 312.43C216.27 312.44 216.24 312.46 216.21 312.47L215 313.01C212.96 313.93 211.1 315.18 209.49 316.72C208.23 317.93 206.49 318.51 204.75 318.37C202.03 318.16 199.35 319.12 197.39 321.01L192.09 326.93V326.94Z" fill="url(#paint3_linear_263_308)"/>
<path d="M247.95 327.91C248.3 326.39 249.21 324.3 251.54 322.48C251.54 322.48 248.71 327.51 251.54 330.81C254.37 334.11 254.06 339.3 251.54 339.46C249.02 339.62 243.99 341.03 245.25 336.47C245.61 335.17 245.97 334.08 246.3 333.2C246.94 331.46 247.54 329.71 247.95 327.91Z" fill="#FF7878"/>
<path d="M247.86 341.21C247.24 341.21 245.33 341.21 244.28 339.83C243.59 338.92 243.45 337.66 243.88 336.1C244.21 334.89 244.58 333.75 244.96 332.71C245.51 331.22 246.13 329.45 246.56 327.59C246.95 325.9 247.97 323.46 250.66 321.36C250.92 321.16 251.22 321.06 251.53 321.06C251.86 321.06 252.19 321.17 252.46 321.4C252.97 321.84 253.1 322.58 252.77 323.17C252.75 323.21 250.47 327.39 252.61 329.88C254.75 332.37 255.56 336.14 254.5 338.65C253.94 339.97 252.89 340.78 251.62 340.86C251.26 340.88 250.83 340.93 250.39 340.99C249.6 341.09 248.71 341.19 247.85 341.19L247.86 341.21Z" fill="#FF7878"/>
<path d="M248.3 328.75C248.56 327.63 249.23 326.07 250.96 324.73C250.96 324.73 248.86 328.46 250.96 330.9C253.06 333.34 252.82 337.19 250.96 337.31C249.1 337.43 245.37 338.48 246.3 335.1C246.57 334.14 246.83 333.33 247.07 332.67C247.55 331.38 247.99 330.09 248.29 328.75H248.3Z" fill="#FFBD7B"/>
<path d="M260.43 339.28C258.41 340.77 255.67 340.83 253.59 339.43L250.06 335.05C248.2 332.74 245.82 330.9 243.12 329.69C241.74 329.07 239.46 328.61 237.56 328.3C235.84 328.02 234.29 329.36 234.29 331.1V415.55H264.32V341.25C264.32 339.25 262.04 338.1 260.43 339.29V339.28Z" fill="url(#paint4_linear_263_308)"/>
</g>
<defs>
<linearGradient id="paint0_linear_263_308" x1="143.98" y1="238.58" x2="143.98" y2="17.75" gradientUnits="userSpaceOnUse">
<stop stop-color="#F3718D"/>
<stop offset="0.18" stop-color="#D97096"/>
<stop offset="0.58" stop-color="#996FAF"/>
<stop offset="1" stop-color="#4E6FCC"/>
</linearGradient>
<linearGradient id="paint1_linear_263_308" x1="143.98" y1="238.58" x2="143.98" y2="397.52" gradientUnits="userSpaceOnUse">
<stop stop-color="#BC78AB"/>
<stop offset="0.28" stop-color="#A26EA7"/>
<stop offset="0.87" stop-color="#62569F"/>
<stop offset="1" stop-color="#54519E"/>
</linearGradient>
<linearGradient id="paint2_linear_263_308" x1="143.91" y1="396.47" x2="143.91" y2="238.25" gradientUnits="userSpaceOnUse">
<stop stop-color="#59539F"/>
<stop offset="0.18" stop-color="#7263A1"/>
<stop offset="0.58" stop-color="#B28DA8"/>
<stop offset="1" stop-color="#FFBFB0"/>
</linearGradient>
<linearGradient id="paint3_linear_263_308" x1="208.24" y1="415.54" x2="208.24" y2="311.87" gradientUnits="userSpaceOnUse">
<stop stop-color="#F6A486"/>
<stop offset="0.63" stop-color="#FBB49E"/>
<stop offset="1" stop-color="#FFBFB0"/>
</linearGradient>
<linearGradient id="paint4_linear_263_308" x1="249.3" y1="415.54" x2="249.3" y2="328.25" gradientUnits="userSpaceOnUse">
<stop stop-color="#F6A486"/>
<stop offset="0.63" stop-color="#FBB49E"/>
<stop offset="1" stop-color="#FFBFB0"/>
</linearGradient>
<clipPath id="clip0_263_308">
<rect width="287.96" height="437.23" fill="white"/>
</clipPath>
</defs>
</svg>
