<svg width="288" height="438" viewBox="0 0 288 438" fill="none" xmlns="http://www.w3.org/2000/svg">
<g clip-path="url(#clip0_263_324)">
<path d="M254.39 17.75H33.5601V397.52H254.39V17.75Z" fill="url(#paint0_linear_263_324)"/>
<path d="M287.96 415.54H0V437.23H287.96V415.54Z" fill="#C8C9C9"/>
<path d="M75.6101 121.33C66.6701 110.21 66.7301 94.76 74.8201 83.8C72.4501 84.86 70.1701 86.23 68.0401 87.94C54.7901 98.59 52.6901 117.96 63.3301 131.2C73.9701 144.44 93.3501 146.55 106.59 135.91C108.71 134.2 110.54 132.27 112.09 130.18C99.6401 135.73 84.5501 132.46 75.6001 121.34L75.6101 121.33Z" fill="white"/>
<path d="M254.39 129.9H152.85V17.75H254.39V129.9ZM15.8101 0V415.27H272.15V0H15.8101ZM135.1 397.52H33.5601V285.37H135.1V397.52ZM135.1 267.62H33.5601V17.75H135.1V267.62ZM254.39 397.52H152.85V147.65H254.39V397.52Z" fill="#C5C4D3"/>
<path d="M101.87 154.47C96.36 147.62 96.4 138.11 101.38 131.35C99.92 132 98.51 132.85 97.21 133.9C89.05 140.46 87.75 152.39 94.31 160.55C100.87 168.71 112.8 170.01 120.96 163.45C122.27 162.4 123.4 161.21 124.35 159.92C116.68 163.34 107.38 161.32 101.88 154.47H101.87Z" fill="white"/>
<path d="M211.99 159.75H149.44V90.67H211.99V159.75ZM65.03 79.74V335.54H222.93V79.74H65.03ZM138.51 324.6H75.96V255.52H138.51V324.6ZM138.51 244.58H75.96V90.67H138.51V244.58ZM211.99 324.6H149.44V170.69H211.99V324.6Z" fill="#C5C4D3"/>
<path d="M128.12 187.61C126.05 185.03 126.06 181.45 127.94 178.9C127.39 179.15 126.86 179.46 126.37 179.86C123.3 182.33 122.81 186.82 125.28 189.89C127.75 192.96 132.24 193.45 135.31 190.98C135.8 190.58 136.23 190.14 136.59 189.65C133.7 190.94 130.2 190.18 128.13 187.6L128.12 187.61Z" fill="white"/>
<path d="M169.59 189.6H146.04V163.59H169.59V189.6ZM114.25 159.47V255.79H173.71V159.47H114.25ZM141.92 251.68H118.37V225.67H141.92V251.68ZM141.92 221.55H118.37V163.59H141.92V221.55ZM169.59 251.68H146.04V193.72H169.59V251.68Z" fill="#C5C4D3"/>
</g>
<defs>
<linearGradient id="paint0_linear_263_324" x1="143.98" y1="17.75" x2="143.98" y2="397.52" gradientUnits="userSpaceOnUse">
<stop stop-color="#0119FF"/>
<stop offset="0.18" stop-color="#031BFF"/>
<stop offset="0.32" stop-color="#0D24FF"/>
<stop offset="0.44" stop-color="#1C32FF"/>
<stop offset="0.54" stop-color="#3346FF"/>
<stop offset="0.64" stop-color="#5060FF"/>
<stop offset="0.74" stop-color="#7380FF"/>
<stop offset="0.83" stop-color="#9DA6FF"/>
<stop offset="0.92" stop-color="#CCD1FF"/>
<stop offset="1" stop-color="white"/>
</linearGradient>
<clipPath id="clip0_263_324">
<rect width="287.96" height="437.23" fill="white"/>
</clipPath>
</defs>
</svg>
