<svg width="68" height="16" viewBox="0 0 68 16" fill="none" xmlns="http://www.w3.org/2000/svg">
<rect opacity="0.35" x="43.5" y="2.83334" width="21" height="10.3333" rx="2.16667" stroke="black"/>
<path opacity="0.4" d="M66 6V10C66.8079 9.66122 67.3333 8.87313 67.3333 8C67.3333 7.12687 66.8079 6.33878 66 6Z" fill="black"/>
<rect x="45" y="4.33334" width="18" height="7.33333" rx="1.33333" fill="black"/>
<path fill-rule="evenodd" clip-rule="evenodd" d="M30.3337 4.57391C32.5585 4.574 34.6981 5.4117 36.3105 6.91385C36.4319 7.02982 36.626 7.02836 36.7456 6.91057L37.9062 5.76273C37.9667 5.70299 38.0005 5.62207 38 5.53787C37.9995 5.45367 37.9648 5.37314 37.9035 5.3141C33.6716 1.33976 26.9952 1.33976 22.7633 5.3141C22.702 5.3731 22.6672 5.4536 22.6667 5.5378C22.6661 5.622 22.6998 5.70295 22.7603 5.76273L23.9212 6.91057C24.0408 7.02853 24.235 7.03 24.3563 6.91385C25.9689 5.4116 28.1088 4.5739 30.3337 4.57391ZM30.3321 8.29946C31.5559 8.29939 32.7359 8.75599 33.643 9.58055C33.7657 9.69757 33.959 9.69503 34.0786 9.57483L35.2392 8.39767C35.3003 8.33593 35.3342 8.25216 35.3333 8.16512C35.3324 8.07808 35.2968 7.99503 35.2345 7.93454C32.4722 5.35517 28.1944 5.35517 25.4322 7.93454C25.3698 7.99503 25.3342 8.07812 25.3333 8.16519C25.3325 8.25226 25.3665 8.33601 25.4278 8.39767L26.588 9.57483C26.7076 9.69503 26.9009 9.69757 27.0236 9.58055C27.9301 8.75653 29.1092 8.29997 30.3321 8.29946ZM32.6666 11.0231C32.6684 11.1085 32.6341 11.1909 32.5718 11.2508L30.557 13.2419C30.498 13.3004 30.4174 13.3333 30.3334 13.3333C30.2494 13.3333 30.1689 13.3004 30.1098 13.2419L28.0947 11.2508C28.0325 11.1908 27.9982 11.1084 28.0001 11.023C28.0019 10.9375 28.0397 10.8566 28.1045 10.7993C29.3912 9.73357 31.2757 9.73357 32.5624 10.7993C32.6271 10.8567 32.6648 10.9376 32.6666 11.0231Z" fill="black"/>
<path fill-rule="evenodd" clip-rule="evenodd" d="M17.6667 3.66666C17.6667 3.11437 17.2189 2.66666 16.6667 2.66666H15.6667C15.1144 2.66666 14.6667 3.11437 14.6667 3.66666V12.3333C14.6667 12.8856 15.1144 13.3333 15.6667 13.3333H16.6667C17.2189 13.3333 17.6667 12.8856 17.6667 12.3333V3.66666ZM11 4.99999H12C12.5523 4.99999 13 5.44771 13 5.99999V12.3333C13 12.8856 12.5523 13.3333 12 13.3333H11C10.4477 13.3333 9.99999 12.8856 9.99999 12.3333V5.99999C9.99999 5.44771 10.4477 4.99999 11 4.99999ZM7.33332 7.33332H6.33332C5.78104 7.33332 5.33332 7.78104 5.33332 8.33332V12.3333C5.33332 12.8856 5.78104 13.3333 6.33332 13.3333H7.33332C7.88561 13.3333 8.33332 12.8856 8.33332 12.3333V8.33332C8.33332 7.78104 7.88561 7.33332 7.33332 7.33332ZM3.66666 10.3333C3.66666 9.78104 3.21894 9.33332 2.66666 9.33332H1.66666C1.11437 9.33332 0.666656 9.78104 0.666656 10.3333V12.3333C0.666656 12.8856 1.11437 13.3333 1.66666 13.3333H2.66666C3.21894 13.3333 3.66666 12.8856 3.66666 12.3333V10.3333Z" fill="black"/>
</svg>
