<svg width="311" height="222" viewBox="0 0 311 222" fill="none" xmlns="http://www.w3.org/2000/svg">
<path d="M299.723 0H11.2775C5.0491 0 0 5.04911 0 11.2775V210.722C0 216.951 5.0491 222 11.2775 222H299.723C305.951 222 311 216.951 311 210.722V11.2775C311 5.04911 305.951 0 299.723 0Z" fill="#8E8E90" fill-opacity="0.7"/>
<path d="M24.4144 193.045H22.2307C22.1504 193.045 22.0734 193.077 22.0166 193.134C21.9599 193.191 21.928 193.268 21.928 193.348V196.98C21.928 197.02 21.9358 197.059 21.9511 197.095C21.9664 197.132 21.9887 197.165 22.0169 197.193C22.0451 197.22 22.0785 197.242 22.1152 197.257C22.1519 197.272 22.1911 197.279 22.2307 197.279H24.4144C24.4847 197.279 24.5525 197.305 24.6047 197.352L27.4629 200.02C27.5073 200.056 27.5608 200.079 27.6174 200.085C27.674 200.092 27.7313 200.083 27.7828 200.058C27.8343 200.034 27.8779 199.995 27.9085 199.947C27.9391 199.899 27.9555 199.844 27.9559 199.787V190.537C27.9565 190.48 27.9405 190.423 27.9099 190.375C27.8793 190.326 27.8353 190.288 27.7833 190.264C27.7313 190.239 27.6734 190.231 27.6166 190.239C27.5598 190.246 27.5064 190.271 27.4629 190.308L24.6047 192.976C24.5511 193.02 24.4839 193.045 24.4144 193.045Z" fill="#F1D0D0" fill-opacity="0.87"/>
<path d="M277.613 193.045H275.408C275.327 193.045 275.25 193.077 275.194 193.134C275.137 193.191 275.105 193.268 275.105 193.348V196.98C275.105 197.02 275.113 197.059 275.128 197.095C275.143 197.132 275.166 197.165 275.194 197.193C275.222 197.22 275.255 197.242 275.292 197.257C275.329 197.272 275.368 197.279 275.408 197.279H277.613C277.684 197.279 277.753 197.305 277.808 197.352L280.661 200.02C280.706 200.056 280.759 200.079 280.816 200.085C280.872 200.092 280.93 200.083 280.981 200.058C281.033 200.034 281.076 199.995 281.107 199.947C281.138 199.899 281.154 199.844 281.154 199.787V190.537C281.155 190.48 281.139 190.423 281.108 190.375C281.078 190.326 281.034 190.288 280.982 190.264C280.93 190.239 280.872 190.231 280.815 190.239C280.758 190.246 280.705 190.271 280.661 190.308L277.808 192.976C277.752 193.02 277.684 193.044 277.613 193.045Z" fill="#F1D0D0" fill-opacity="0.87"/>
<path d="M282.694 197.266C282.982 196.989 283.21 196.657 283.366 196.289C283.521 195.921 283.599 195.525 283.596 195.126C283.593 194.727 283.508 194.333 283.347 193.967C283.186 193.602 282.952 193.274 282.659 193.002C282.625 192.967 282.584 192.94 282.538 192.921C282.493 192.902 282.445 192.892 282.395 192.892C282.346 192.892 282.298 192.902 282.253 192.921C282.207 192.94 282.166 192.967 282.132 193.002C282.063 193.072 282.024 193.167 282.024 193.266C282.024 193.364 282.063 193.459 282.132 193.529C283.624 195.017 282.132 196.755 282.132 196.773C282.063 196.845 282.027 196.942 282.03 197.042C282.033 197.142 282.076 197.236 282.149 197.304C282.222 197.373 282.319 197.409 282.419 197.406C282.518 197.403 282.613 197.36 282.681 197.287L282.694 197.266Z" fill="#F1D0D0" fill-opacity="0.87"/>
<path d="M285.189 198.429C288.484 194.896 285.189 191.943 285.189 191.943C285.119 191.873 285.024 191.835 284.925 191.835C284.826 191.835 284.732 191.873 284.661 191.943C284.627 191.977 284.599 192.018 284.58 192.063C284.561 192.109 284.552 192.157 284.552 192.206C284.552 192.255 284.561 192.304 284.58 192.349C284.599 192.394 284.627 192.435 284.661 192.47C287.36 195.168 284.661 197.91 284.661 197.927C284.628 197.963 284.601 198.006 284.584 198.052C284.566 198.098 284.558 198.147 284.56 198.197C284.561 198.246 284.573 198.295 284.593 198.34C284.614 198.385 284.643 198.425 284.679 198.459C284.715 198.493 284.757 198.519 284.803 198.537C284.85 198.554 284.899 198.562 284.948 198.561C284.998 198.559 285.046 198.548 285.091 198.527C285.136 198.507 285.177 198.478 285.211 198.442L285.189 198.429Z" fill="#F1D0D0" fill-opacity="0.87"/>
<path d="M287.312 199.462C291.545 195.225 287.312 190.814 287.312 190.814C287.278 190.779 287.236 190.751 287.191 190.733C287.146 190.714 287.097 190.704 287.048 190.704C286.999 190.704 286.951 190.714 286.905 190.733C286.86 190.751 286.819 190.779 286.785 190.814C286.716 190.885 286.678 190.979 286.678 191.078C286.678 191.176 286.716 191.271 286.785 191.341C290.529 195.501 286.785 198.948 286.785 198.965C286.727 199.039 286.699 199.133 286.706 199.226C286.714 199.32 286.756 199.408 286.825 199.472C286.894 199.536 286.985 199.572 287.079 199.573C287.173 199.573 287.264 199.538 287.334 199.475L287.312 199.462Z" fill="#F1D0D0" fill-opacity="0.87"/>
<path d="M262.63 194.035H40.4355C39.8122 194.035 39.3069 194.54 39.3069 195.162C39.3069 195.784 39.8122 196.288 40.4355 196.288H262.63C263.253 196.288 263.758 195.784 263.758 195.162C263.758 194.54 263.253 194.035 262.63 194.035Z" fill="white"/>
<path d="M154.374 194.035H40.4355C39.8122 194.035 39.3069 194.54 39.3069 195.162C39.3069 195.784 39.8122 196.288 40.4355 196.288H154.374C154.997 196.288 155.502 195.784 155.502 195.162C155.502 194.54 154.997 194.035 154.374 194.035Z" fill="#F1D0D0" fill-opacity="0.87"/>
<path d="M155.061 203.765C159.811 203.765 163.662 199.914 163.662 195.164C163.662 190.414 159.811 186.563 155.061 186.563C150.311 186.563 146.46 190.414 146.46 195.164C146.46 199.914 150.311 203.765 155.061 203.765Z" fill="#F1D0D0"/>
<path d="M150.746 129.938H145.755C143.842 129.938 142.292 131.489 142.292 133.402V159.247C142.292 161.16 143.842 162.711 145.755 162.711H150.746C152.658 162.711 154.209 161.16 154.209 159.247V133.402C154.209 131.489 152.658 129.938 150.746 129.938Z" fill="#F1D0D0" fill-opacity="0.87"/>
<path d="M165.08 129.938H160.09C158.177 129.938 156.626 131.489 156.626 133.402V159.247C156.626 161.16 158.177 162.711 160.09 162.711H165.08C166.993 162.711 168.544 161.16 168.544 159.247V133.402C168.544 131.489 166.993 129.938 165.08 129.938Z" fill="#F1D0D0" fill-opacity="0.87"/>
<path d="M251.56 145.561L237.83 137.639C237.697 137.556 237.544 137.511 237.388 137.508C237.231 137.505 237.076 137.544 236.94 137.623C236.804 137.701 236.692 137.814 236.616 137.951C236.54 138.088 236.502 138.244 236.507 138.4V154.253C236.502 154.41 236.54 154.565 236.616 154.702C236.692 154.839 236.804 154.952 236.94 155.03C237.076 155.109 237.231 155.148 237.388 155.145C237.544 155.143 237.697 155.097 237.83 155.014L251.555 147.088C251.694 147.014 251.81 146.905 251.891 146.77C251.972 146.636 252.015 146.482 252.016 146.326C252.016 146.169 251.974 146.015 251.894 145.88C251.813 145.746 251.698 145.635 251.56 145.561Z" fill="white"/>
<path d="M265.172 145.561L251.443 137.639C251.31 137.557 251.158 137.513 251.001 137.51C250.845 137.508 250.692 137.548 250.556 137.626C250.421 137.704 250.309 137.817 250.233 137.954C250.157 138.09 250.12 138.244 250.124 138.4V154.253C250.12 154.409 250.157 154.563 250.233 154.7C250.309 154.836 250.421 154.949 250.556 155.027C250.692 155.105 250.845 155.145 251.001 155.143C251.158 155.14 251.31 155.096 251.443 155.014L265.172 147.088C265.311 147.014 265.426 146.904 265.507 146.769C265.588 146.635 265.63 146.481 265.63 146.324C265.63 146.168 265.588 146.014 265.507 145.879C265.426 145.745 265.311 145.635 265.172 145.561Z" fill="white"/>
<path d="M59.0252 147.088L72.7501 155.014C72.8825 155.09 73.0328 155.13 73.1856 155.13C73.3385 155.129 73.4884 155.088 73.6203 155.011C73.7521 154.934 73.8611 154.823 73.9361 154.689C74.0112 154.556 74.0495 154.406 74.0474 154.253V138.4C74.0495 138.247 74.0112 138.097 73.9361 137.964C73.8611 137.83 73.7521 137.72 73.6203 137.642C73.4884 137.565 73.3385 137.524 73.1856 137.523C73.0328 137.523 72.8825 137.563 72.7501 137.639L59.0252 145.561C58.8868 145.635 58.7711 145.745 58.6904 145.879C58.6097 146.014 58.5671 146.168 58.5671 146.324C58.5671 146.481 58.6097 146.635 58.6904 146.769C58.7711 146.904 58.8868 147.014 59.0252 147.088Z" fill="white"/>
<path d="M45.404 147.088L59.1289 155.014C59.2618 155.097 59.4149 155.143 59.5716 155.145C59.7284 155.148 59.883 155.109 60.0189 155.03C60.1549 154.952 60.267 154.839 60.3433 154.702C60.4196 154.565 60.4572 154.41 60.4521 154.253V138.4C60.4572 138.244 60.4196 138.088 60.3433 137.951C60.267 137.814 60.1549 137.701 60.0189 137.623C59.883 137.544 59.7284 137.505 59.5716 137.508C59.4149 137.511 59.2618 137.556 59.1289 137.639L45.404 145.561C45.2656 145.635 45.1499 145.745 45.0692 145.879C44.9885 146.014 44.9459 146.168 44.9459 146.324C44.9459 146.481 44.9885 146.635 45.0692 146.769C45.1499 146.904 45.2656 147.014 45.404 147.088Z" fill="white"/>
<path d="M278.166 49.1488L272.424 55.1292C272.34 55.2162 272.283 55.3257 272.26 55.4445C272.237 55.5632 272.25 55.6861 272.296 55.7979C272.341 55.9098 272.419 56.006 272.518 56.0746C272.618 56.1432 272.735 56.1813 272.856 56.1843H284.376C284.497 56.1813 284.614 56.1432 284.714 56.0746C284.813 56.006 284.891 55.9098 284.937 55.7979C284.983 55.6861 284.995 55.5632 284.972 55.4445C284.949 55.3257 284.892 55.2162 284.808 55.1292L279.053 49.1488C278.995 49.0901 278.926 49.0435 278.85 49.0117C278.774 48.9799 278.692 48.9635 278.61 48.9635C278.527 48.9635 278.446 48.9799 278.369 49.0117C278.293 49.0435 278.224 49.0901 278.166 49.1488Z" fill="#F1D0D0" fill-opacity="0.87"/>
<path d="M275.235 49.9229C274.583 49.2572 274.143 48.4142 273.969 47.4994C273.795 46.5846 273.894 45.6387 274.256 44.7804C274.617 43.922 275.223 43.1893 275.999 42.674C276.774 42.1588 277.685 41.8839 278.616 41.8839C279.547 41.8839 280.458 42.1588 281.234 42.674C282.009 43.1893 282.616 43.922 282.977 44.7804C283.338 45.6387 283.437 46.5846 283.263 47.4994C283.089 48.4142 282.649 49.2572 281.998 49.9229L283.092 51.0601C283.933 50.2038 284.505 49.119 284.735 47.9405C284.966 46.7621 284.845 45.5419 284.388 44.4316C283.93 43.3213 283.157 42.3698 282.164 41.6953C281.17 41.0209 280 40.6532 278.8 40.6379C277.599 40.6226 276.42 40.9605 275.41 41.6095C274.4 42.2585 273.603 43.19 273.117 44.2884C272.632 45.3867 272.48 46.6034 272.68 47.7874C272.881 48.9713 273.425 50.0702 274.244 50.9477L275.235 49.9229Z" fill="#F1D0D0" fill-opacity="0.87"/>
<path d="M273.492 51.5834C272.515 50.5765 271.857 49.3042 271.599 47.9253C271.341 46.5465 271.495 45.1222 272.041 43.8303C272.588 42.5384 273.503 41.4361 274.672 40.6612C275.842 39.8863 277.213 39.473 278.616 39.473C280.019 39.473 281.391 39.8863 282.56 40.6612C283.729 41.4361 284.644 42.5384 285.191 43.8303C285.738 45.1222 285.892 46.5465 285.634 47.9253C285.376 49.3042 284.717 50.5765 283.74 51.5834L284.657 52.539C285.826 51.3489 286.617 49.8401 286.931 48.2019C287.246 46.5637 287.069 44.8692 286.424 43.3311C285.778 41.7929 284.693 40.4796 283.304 39.5561C281.915 38.6325 280.284 38.1398 278.616 38.1398C276.948 38.1398 275.317 38.6325 273.928 39.5561C272.539 40.4796 271.454 41.7929 270.809 43.3311C270.163 44.8692 269.987 46.5637 270.301 48.2019C270.615 49.8401 271.406 51.3489 272.575 52.539L273.492 51.5834Z" fill="#F1D0D0" fill-opacity="0.87"/>
<path d="M276.986 47.9553C276.912 47.867 276.846 47.773 276.787 47.6743C276.789 47.6628 276.789 47.6512 276.787 47.6397C276.735 47.5499 276.69 47.4559 276.653 47.3586L276.614 47.2332C276.614 47.1597 276.566 47.0862 276.549 47.0083C276.525 46.8785 276.512 46.7469 276.51 46.6148C276.509 46.1923 276.636 45.7794 276.874 45.43C277.024 45.2014 277.22 45.0057 277.449 44.8549C277.798 44.6182 278.211 44.4918 278.633 44.4918C279.056 44.4918 279.468 44.6182 279.818 44.8549C280.107 45.0486 280.343 45.3107 280.506 45.6177C280.669 45.9247 280.754 46.2673 280.752 46.6148C280.752 46.747 280.739 46.8788 280.713 47.0083C280.698 47.0845 280.678 47.1596 280.653 47.2332L280.614 47.3586C280.576 47.456 280.529 47.55 280.476 47.6397C280.477 47.6512 280.477 47.6628 280.476 47.6743C280.42 47.7739 280.355 47.868 280.281 47.9553L281.146 48.8634C281.704 48.2479 282.013 47.446 282.011 46.6148C282.011 46.0682 281.879 45.5295 281.625 45.0453C281.371 44.5612 281.003 44.1461 280.553 43.836C280.103 43.5258 279.584 43.3299 279.041 43.2651C278.499 43.2003 277.948 43.2686 277.438 43.4641C276.927 43.6596 276.472 43.9764 276.111 44.3871C275.75 44.7979 275.495 45.2903 275.367 45.8219C275.239 46.3534 275.243 46.908 275.377 47.4379C275.511 47.9679 275.773 48.4571 276.138 48.8634L276.986 47.9553Z" fill="#F1D0D0" fill-opacity="0.87"/>
<path d="M71.5293 21H24.5988C23.1635 21 22 22.1635 22 23.5988V70.5294C22 71.9647 23.1635 73.1282 24.5988 73.1282H71.5293C72.9646 73.1282 74.1281 71.9647 74.1281 70.5294V23.5988C74.1281 22.1635 72.9646 21 71.5293 21Z" fill="#FFF9F9"/>
<path d="M28.4229 109.372C28.4229 111.352 27.7915 113.484 25.3657 113.484C22.9398 113.484 22.3387 111.478 22.3387 109.424C22.3387 107.37 23.0739 105.368 25.4262 105.368C27.7786 105.368 28.4229 107.322 28.4229 109.372ZM23.6663 109.419C23.6663 110.903 23.93 112.507 25.3959 112.507C26.8618 112.507 27.0954 110.985 27.0954 109.376C27.0954 107.867 26.8273 106.349 25.4305 106.349C24.0338 106.349 23.6663 107.703 23.6663 109.402V109.419Z" fill="#F1D0D0" fill-opacity="0.87"/>
<path d="M30.0877 107.863V107.4C30.0877 107.227 30.1565 107.061 30.2789 106.938C30.4014 106.816 30.5675 106.747 30.7406 106.747C30.9135 106.748 31.0789 106.817 31.2011 106.94C31.3233 107.062 31.3924 107.227 31.3936 107.4V107.863C31.3965 107.95 31.3817 108.038 31.3502 108.119C31.3187 108.201 31.2711 108.276 31.2102 108.339C31.1492 108.401 31.0763 108.452 30.9956 108.486C30.9149 108.52 30.8282 108.537 30.7406 108.537C30.6529 108.538 30.5659 108.521 30.4849 108.487C30.404 108.453 30.3308 108.403 30.2697 108.34C30.2087 108.277 30.1611 108.202 30.1298 108.12C30.0985 108.038 30.0842 107.95 30.0877 107.863ZM30.0877 112.126V111.659C30.0877 111.486 30.1565 111.32 30.2789 111.198C30.4014 111.075 30.5675 111.006 30.7406 111.006C30.9135 111.008 31.0789 111.077 31.2011 111.199C31.3233 111.321 31.3924 111.487 31.3936 111.659V112.126C31.3936 112.212 31.3767 112.297 31.3439 112.376C31.3111 112.456 31.263 112.528 31.2023 112.588C31.1417 112.649 31.0697 112.697 30.9905 112.73C30.9113 112.763 30.8264 112.779 30.7406 112.779C30.6547 112.78 30.5696 112.763 30.4901 112.731C30.4106 112.698 30.3384 112.65 30.2776 112.589C30.2169 112.529 30.1688 112.456 30.1362 112.377C30.1036 112.298 30.0871 112.212 30.0877 112.126Z" fill="#F1D0D0" fill-opacity="0.87"/>
<path d="M39.1556 109.372C39.1556 111.352 38.5242 113.484 36.1027 113.484C33.6811 113.484 33.0757 111.478 33.0757 109.424C33.0757 107.37 33.8109 105.368 36.1632 105.368C38.5156 105.368 39.1556 107.322 39.1556 109.372ZM34.3989 109.419C34.3989 110.903 34.6627 112.507 36.1286 112.507C37.5945 112.507 37.828 110.985 37.828 109.376C37.828 107.867 37.5599 106.349 36.1632 106.349C34.7665 106.349 34.3989 107.703 34.3989 109.402V109.419Z" fill="#F1D0D0" fill-opacity="0.87"/>
<path d="M46.5845 109.372C46.5845 111.352 45.9488 113.484 43.5273 113.484C41.1058 113.484 40.5004 111.478 40.5004 109.424C40.5004 107.37 41.2355 105.368 43.5878 105.368C45.9402 105.368 46.5845 107.322 46.5845 109.372ZM41.8279 109.419C41.8279 110.903 42.0917 112.507 43.5576 112.507C45.0235 112.507 45.257 110.985 45.257 109.376C45.257 107.867 44.9889 106.349 43.5922 106.349C42.1954 106.349 41.8236 107.703 41.8236 109.402L41.8279 109.419Z" fill="#F1D0D0" fill-opacity="0.87"/>
<path d="M271.416 108.116V107.653C271.417 107.48 271.487 107.315 271.609 107.192C271.731 107.07 271.896 107.001 272.069 107C272.242 107 272.409 107.069 272.531 107.191C272.653 107.314 272.722 107.48 272.722 107.653V108.116C272.723 108.202 272.706 108.287 272.674 108.366C272.641 108.446 272.593 108.518 272.532 108.579C272.472 108.639 272.399 108.687 272.32 108.72C272.24 108.753 272.155 108.769 272.069 108.769C271.896 108.769 271.73 108.7 271.608 108.577C271.485 108.455 271.416 108.289 271.416 108.116ZM271.416 112.379V111.912C271.417 111.739 271.487 111.574 271.609 111.452C271.731 111.33 271.896 111.26 272.069 111.259C272.242 111.259 272.409 111.328 272.531 111.451C272.653 111.573 272.722 111.739 272.722 111.912V112.379C272.723 112.465 272.706 112.55 272.674 112.63C272.641 112.709 272.593 112.782 272.532 112.842C272.472 112.903 272.399 112.951 272.32 112.984C272.24 113.016 272.155 113.033 272.069 113.032C271.896 113.032 271.73 112.963 271.608 112.841C271.485 112.719 271.416 112.552 271.416 112.379Z" fill="#F1D0D0" fill-opacity="0.87"/>
<path d="M287.615 110.004C287.615 111.985 286.983 114.117 284.558 114.117C282.132 114.117 281.531 112.11 281.531 110.056C281.531 108.002 282.266 106 284.614 106C286.962 106 287.615 107.955 287.615 110.004ZM282.858 110.052C282.858 111.535 283.118 113.139 284.588 113.139C286.058 113.139 286.287 111.617 286.287 110.009C286.287 108.499 286.019 106.982 284.622 106.982C283.226 106.982 282.858 108.335 282.858 110.034V110.052Z" fill="#F1D0D0" fill-opacity="0.87"/>
<path d="M280.169 110.004C280.169 111.985 279.537 114.117 277.116 114.117C274.694 114.117 274.067 112.11 274.067 110.056C274.067 108.002 274.802 106 277.155 106C279.507 106 280.169 107.955 280.169 110.004ZM275.412 110.052C275.412 111.535 275.676 113.139 277.142 113.139C278.607 113.139 278.841 111.617 278.841 110.009C278.841 108.499 278.573 106.982 277.176 106.982C275.779 106.982 275.412 108.335 275.412 110.034V110.052Z" fill="#F1D0D0" fill-opacity="0.87"/>
<path d="M84.767 34V28.5455H85.6051V34H84.767ZM85.1932 27.6364C85.0298 27.6364 84.889 27.5807 84.7706 27.4695C84.6546 27.3582 84.5966 27.2244 84.5966 27.0682C84.5966 26.9119 84.6546 26.7782 84.7706 26.6669C84.889 26.5556 85.0298 26.5 85.1932 26.5C85.3565 26.5 85.4962 26.5556 85.6122 26.6669C85.7306 26.7782 85.7898 26.9119 85.7898 27.0682C85.7898 27.2244 85.7306 27.3582 85.6122 27.4695C85.4962 27.5807 85.3565 27.6364 85.1932 27.6364ZM87.2537 34V26.7273H89.7111C90.2817 26.7273 90.748 26.8303 91.1103 27.0362C91.4748 27.2398 91.7447 27.5156 91.9199 27.8636C92.0951 28.2116 92.1827 28.5999 92.1827 29.0284C92.1827 29.4569 92.0951 29.8464 91.9199 30.1967C91.7471 30.5471 91.4796 30.8265 91.1174 31.0348C90.7551 31.2408 90.2911 31.3438 89.7253 31.3438H87.964V30.5625H89.6969C90.0875 30.5625 90.4012 30.495 90.638 30.3601C90.8747 30.2251 91.0463 30.0429 91.1529 29.8132C91.2618 29.5812 91.3162 29.3196 91.3162 29.0284C91.3162 28.7372 91.2618 28.4768 91.1529 28.2472C91.0463 28.0175 90.8735 27.8376 90.6344 27.7074C90.3953 27.5748 90.0781 27.5085 89.6827 27.5085H88.1344V34H87.2537ZM94.3258 30.7188V34H93.4877V26.7273H94.3258V29.3977H94.3968C94.5247 29.116 94.7164 28.8923 94.9721 28.7266C95.2302 28.5585 95.5734 28.4744 96.002 28.4744C96.3736 28.4744 96.6992 28.549 96.9785 28.6982C97.2579 28.8449 97.4745 29.071 97.6284 29.3764C97.7846 29.6795 97.8627 30.0653 97.8627 30.5341V34H97.0247V30.5909C97.0247 30.1577 96.9122 29.8227 96.6873 29.5859C96.4648 29.3468 96.1558 29.2273 95.7605 29.2273C95.4859 29.2273 95.2396 29.2853 95.0218 29.4013C94.8064 29.5173 94.6359 29.6866 94.5105 29.9091C94.3874 30.1316 94.3258 30.4015 94.3258 30.7188ZM101.612 34.1136C101.119 34.1136 100.687 33.9964 100.316 33.7621C99.9464 33.5277 99.6576 33.1998 99.4492 32.7784C99.2433 32.357 99.1403 31.8646 99.1403 31.3011C99.1403 30.733 99.2433 30.237 99.4492 29.8132C99.6576 29.3894 99.9464 29.0604 100.316 28.826C100.687 28.5916 101.119 28.4744 101.612 28.4744C102.104 28.4744 102.535 28.5916 102.904 28.826C103.276 29.0604 103.565 29.3894 103.771 29.8132C103.979 30.237 104.083 30.733 104.083 31.3011C104.083 31.8646 103.979 32.357 103.771 32.7784C103.565 33.1998 103.276 33.5277 102.904 33.7621C102.535 33.9964 102.104 34.1136 101.612 34.1136ZM101.612 33.3608C101.986 33.3608 102.294 33.2649 102.535 33.0732C102.777 32.8814 102.955 32.6293 103.071 32.3168C103.187 32.0043 103.245 31.6657 103.245 31.3011C103.245 30.9366 103.187 30.5968 103.071 30.282C102.955 29.9671 102.777 29.7126 102.535 29.5185C102.294 29.3243 101.986 29.2273 101.612 29.2273C101.238 29.2273 100.93 29.3243 100.689 29.5185C100.447 29.7126 100.268 29.9671 100.152 30.282C100.036 30.5968 99.9783 30.9366 99.9783 31.3011C99.9783 31.6657 100.036 32.0043 100.152 32.3168C100.268 32.6293 100.447 32.8814 100.689 33.0732C100.93 33.2649 101.238 33.3608 101.612 33.3608ZM106.201 30.7188V34H105.363V28.5455H106.172V29.3977H106.243C106.371 29.1207 106.565 28.8982 106.826 28.7301C107.086 28.5597 107.422 28.4744 107.834 28.4744C108.204 28.4744 108.527 28.5502 108.804 28.7017C109.081 28.8509 109.296 29.0781 109.45 29.3835C109.604 29.6866 109.681 30.0701 109.681 30.5341V34H108.843V30.5909C108.843 30.1624 108.732 29.8286 108.509 29.5895C108.287 29.348 107.981 29.2273 107.593 29.2273C107.325 29.2273 107.086 29.2853 106.876 29.4013C106.667 29.5173 106.503 29.6866 106.382 29.9091C106.261 30.1316 106.201 30.4015 106.201 30.7188ZM113.499 34.1136C112.974 34.1136 112.52 33.9976 112.139 33.7656C111.76 33.5312 111.468 33.2045 111.262 32.7855C111.058 32.3641 110.957 31.8741 110.957 31.3153C110.957 30.7566 111.058 30.2642 111.262 29.8381C111.468 29.4096 111.754 29.0758 112.121 28.8366C112.491 28.5952 112.922 28.4744 113.414 28.4744C113.698 28.4744 113.979 28.5218 114.256 28.6165C114.533 28.7112 114.785 28.8651 115.012 29.0781C115.239 29.2888 115.42 29.5682 115.555 29.9162C115.69 30.2642 115.758 30.6927 115.758 31.2017V31.5568H111.553V30.8324H114.906C114.906 30.5246 114.844 30.25 114.721 30.0085C114.6 29.767 114.427 29.5765 114.202 29.4368C113.98 29.2971 113.717 29.2273 113.414 29.2273C113.08 29.2273 112.791 29.3101 112.548 29.4759C112.306 29.6392 112.12 29.8523 111.99 30.1151C111.86 30.3778 111.795 30.6596 111.795 30.9602V31.4432C111.795 31.8551 111.866 32.2043 112.008 32.4908C112.152 32.7749 112.352 32.9915 112.608 33.1406C112.864 33.2874 113.161 33.3608 113.499 33.3608C113.719 33.3608 113.918 33.33 114.096 33.2685C114.276 33.2045 114.431 33.1098 114.561 32.9844C114.691 32.8565 114.792 32.6979 114.863 32.5085L115.673 32.7358C115.587 33.0104 115.444 33.2519 115.243 33.4602C115.042 33.6662 114.793 33.8272 114.497 33.9432C114.201 34.0568 113.869 34.1136 113.499 34.1136Z" fill="white"/>
<path d="M260.965 106V114H259.516V107.41H259.469L257.598 108.605V107.277L259.586 106H260.965ZM265.926 114.109C265.543 114.107 265.169 114.04 264.805 113.91C264.44 113.777 264.112 113.562 263.82 113.266C263.529 112.966 263.297 112.569 263.125 112.074C262.953 111.577 262.868 110.961 262.871 110.227C262.871 109.542 262.944 108.931 263.09 108.395C263.236 107.858 263.445 107.405 263.719 107.035C263.992 106.663 264.322 106.379 264.707 106.184C265.095 105.988 265.529 105.891 266.008 105.891C266.51 105.891 266.956 105.99 267.344 106.187C267.734 106.385 268.049 106.656 268.289 107C268.529 107.341 268.677 107.727 268.734 108.156H267.309C267.236 107.849 267.086 107.604 266.859 107.422C266.635 107.237 266.352 107.145 266.008 107.145C265.453 107.145 265.026 107.385 264.727 107.867C264.43 108.349 264.28 109.01 264.277 109.852H264.332C264.46 109.622 264.625 109.426 264.828 109.262C265.031 109.098 265.26 108.971 265.516 108.883C265.773 108.792 266.046 108.746 266.332 108.746C266.801 108.746 267.221 108.858 267.594 109.082C267.969 109.306 268.266 109.615 268.484 110.008C268.703 110.398 268.811 110.846 268.809 111.352C268.811 111.878 268.691 112.35 268.449 112.77C268.207 113.186 267.87 113.514 267.438 113.754C267.005 113.993 266.501 114.112 265.926 114.109ZM265.918 112.937C266.202 112.937 266.456 112.868 266.68 112.73C266.904 112.592 267.081 112.406 267.211 112.172C267.341 111.937 267.405 111.674 267.402 111.383C267.405 111.096 267.342 110.837 267.215 110.605C267.09 110.374 266.917 110.19 266.695 110.055C266.474 109.919 266.221 109.852 265.938 109.852C265.727 109.852 265.53 109.892 265.348 109.973C265.165 110.053 265.007 110.165 264.871 110.309C264.736 110.449 264.629 110.613 264.551 110.801C264.475 110.986 264.436 111.184 264.434 111.395C264.436 111.673 264.501 111.93 264.629 112.164C264.757 112.398 264.932 112.586 265.156 112.727C265.38 112.867 265.634 112.937 265.918 112.937Z" fill="#F1D0D0" fill-opacity="0.87"/>
<path d="M84.8807 43.3636H88.3636L91.3182 50.5682H91.4545L94.4091 43.3636H97.892V55H95.1534V47.8523H95.0568L92.2614 54.9261H90.5114L87.7159 47.8125H87.6193V55H84.8807V43.3636ZM99.6463 55V43.3636H104.499C105.37 43.3636 106.099 43.4867 106.686 43.733C107.277 43.9792 107.72 44.3239 108.016 44.767C108.315 45.2102 108.464 45.7235 108.464 46.3068C108.464 46.75 108.372 47.1458 108.186 47.4943C108 47.839 107.745 48.125 107.419 48.3523C107.093 48.5795 106.716 48.7386 106.288 48.8295V48.9432C106.758 48.9659 107.192 49.0928 107.589 49.3239C107.991 49.5549 108.313 49.8769 108.555 50.2898C108.798 50.6989 108.919 51.1837 108.919 51.7443C108.919 52.3693 108.76 52.928 108.442 53.4205C108.124 53.9091 107.663 54.2955 107.061 54.5795C106.459 54.8598 105.728 55 104.868 55H99.6463ZM102.459 52.733H104.197C104.807 52.733 105.256 52.6174 105.544 52.3864C105.836 52.1553 105.982 51.8333 105.982 51.4205C105.982 51.1212 105.911 50.8636 105.771 50.6477C105.631 50.428 105.432 50.2595 105.175 50.142C104.917 50.0208 104.608 49.9602 104.249 49.9602H102.459V52.733ZM102.459 48.1477H104.016C104.322 48.1477 104.595 48.0966 104.834 47.9943C105.072 47.892 105.258 47.7443 105.391 47.5511C105.527 47.358 105.595 47.125 105.595 46.8523C105.595 46.4621 105.457 46.1553 105.18 45.9318C104.904 45.7083 104.531 45.5966 104.061 45.5966H102.459V48.1477ZM109.891 45.6477V43.3636H119.726V45.6477H116.197V55H113.425V45.6477H109.891ZM123.912 43.3636V55H121.099V43.3636H123.912Z" fill="white"/>
<path d="M288.065 94.8945H25.9235C25.3002 94.8945 24.7949 95.3988 24.7949 96.021C24.7949 96.6431 25.3002 97.1474 25.9235 97.1474H288.065C288.688 97.1474 289.193 96.6431 289.193 96.021C289.193 95.3988 288.688 94.8945 288.065 94.8945Z" fill="white"/>
<path d="M24.7949 99.1236C26.5072 99.1236 27.8953 97.7355 27.8953 96.0231C27.8953 94.3108 26.5072 92.9227 24.7949 92.9227C23.0826 92.9227 21.6945 94.3108 21.6945 96.0231C21.6945 97.7355 23.0826 99.1236 24.7949 99.1236Z" fill="#F1D0D0" fill-opacity="0.87"/>
<path d="M59.1425 45.6989L39.22 34.1975C38.9949 34.0679 38.7397 33.9998 38.4801 34C38.2204 34.0002 37.9653 34.0686 37.7404 34.1985C37.5155 34.3284 37.3287 34.5151 37.1988 34.7399C37.0688 34.9648 37.0003 35.2198 37 35.4795V58.4857C37.0003 58.7454 37.0688 59.0005 37.1988 59.2253C37.3287 59.4502 37.5155 59.6369 37.7404 59.7667C37.9653 59.8966 38.2204 59.9651 38.4801 59.9653C38.7397 59.9654 38.9949 59.8974 39.22 59.7678L59.1425 48.2664C59.3673 48.1358 59.5539 47.9486 59.6836 47.7233C59.8133 47.498 59.8816 47.2426 59.8816 46.9826C59.8816 46.7227 59.8133 46.4673 59.6836 46.242C59.5539 46.0167 59.3673 45.8294 59.1425 45.6989Z" fill="#F1D0D0" fill-opacity="0.87"/>
</svg>
