<svg width="12" height="19" viewBox="0 0 12 19" fill="none" xmlns="http://www.w3.org/2000/svg">
<path d="M3.82848 18.4013C2.77811 18.4013 1.89029 18.0387 1.16503 17.3135C0.439777 16.5882 0.0771484 15.7004 0.0771484 14.65C0.0771484 13.5996 0.439777 12.7118 1.16503 11.9866C1.89029 11.2613 2.77811 10.8987 3.82848 10.8987C4.29531 10.8987 4.71629 10.9654 5.09142 11.0988C5.46656 11.2321 5.79584 11.4155 6.07927 11.6489L6.07927 0.394958L11.9313 0.394958V3.77115H7.57981L7.57981 14.65C7.57981 15.7004 7.21718 16.5882 6.49192 17.3135C5.76666 18.0387 4.87885 18.4013 3.82848 18.4013Z" fill="#F4A9A9"/>
</svg>
