<svg width="162" height="22" viewBox="0 0 162 22" fill="none" xmlns="http://www.w3.org/2000/svg">
<path d="M1.23698 19.1875H3.23698V14.6562H3.3151C3.6276 15.2812 4.29167 16.1484 5.7526 16.1562C7.7526 16.1484 9.24479 14.5547 9.2526 11.7656C9.24479 8.9375 7.70573 7.40625 5.7526 7.40625C4.24479 7.40625 3.61979 8.30469 3.3151 8.90625H3.1901V7.51562H1.23698V19.1875ZM3.1901 11.75C3.19792 10.1016 3.90104 9.03906 5.20573 9.03125C6.54167 9.03906 7.22135 10.1719 7.22135 11.75C7.22135 13.3516 6.52604 14.5156 5.20573 14.5156C3.91667 14.5156 3.19792 13.4062 3.1901 11.75ZM12.4818 4.6875H10.4818V16H12.4818V4.6875ZM13.6641 13.6094C13.6641 15.2891 14.8906 16.1719 16.5078 16.1719C17.8437 16.1719 18.6328 15.5469 19.0078 14.8281H19.0703V16H20.9766V10.3281C20.9766 8.07031 19.1172 7.40625 17.5078 7.40625C15.3828 7.40625 14.0859 8.49219 13.9453 9.9375H15.8672C16.0234 9.32812 16.5703 8.92188 17.4609 8.92188C18.4531 8.92188 18.9922 9.40625 18.9922 10.25L19 10.9297C18.625 10.9453 17.4141 11 16.8203 11.0469C15.25 11.1484 13.6641 11.7031 13.6641 13.6094ZM15.5859 13.5938C15.5859 12.8516 16.1875 12.4531 17.1328 12.375C17.5312 12.3438 18.6406 12.2734 19 12.2578L19.0078 12.9531C19.0078 13.9062 18.2344 14.7031 17.0234 14.7031C16.1875 14.7031 15.5859 14.3281 15.5859 13.5938ZM23.4089 19.1875C25.0026 19.1797 25.8932 18.3828 26.3776 17.0312L29.7839 7.51562H27.6745L25.7057 13.9219H25.612L23.6432 7.51562H21.5339L24.6276 16.1719L24.4557 16.625C24.112 17.5391 23.7057 17.5703 23.2214 17.5781C22.9557 17.5703 22.6198 17.5703 22.3776 17.5469V19.1406C22.6354 19.1719 23.0104 19.1797 23.4089 19.1875ZM32.7005 4.6875H30.7005V16H32.7005V4.6875ZM34.2734 16H36.2734V7.51562H34.2734V16ZM34.1328 5.21875C34.1328 5.82031 34.6562 6.30469 35.2891 6.3125C35.9219 6.30469 36.4453 5.82031 36.4453 5.21875C36.4453 4.625 35.9219 4.14062 35.2891 4.14062C34.6562 4.14062 34.1328 4.625 34.1328 5.21875ZM42.6589 9.9375H44.5495C44.401 8.39844 43.151 7.40625 41.1276 7.40625C39.0573 7.40625 37.6979 8.42969 37.7057 10C37.6979 11.2109 38.5182 12.0391 40.0964 12.3594L41.4557 12.6562C42.2995 12.8359 42.6823 13.1484 42.6901 13.6406C42.6823 14.2734 42.0573 14.6641 41.0964 14.6562C40.1667 14.6641 39.6042 14.3047 39.487 13.5781H37.4557C37.6667 15.2031 38.9401 16.1719 41.0964 16.1719C43.3151 16.1719 44.7135 15.0625 44.7214 13.4688C44.7135 12.25 43.9323 11.5078 42.3307 11.1562L40.8932 10.8594C40.0339 10.6562 39.6823 10.3281 39.6901 9.89062C39.6823 9.3125 40.3073 8.88281 41.1589 8.89062C42.0026 8.88281 42.5339 9.29688 42.6589 9.9375ZM50.138 7.51562H48.4661V5.48438H46.4818V7.51562H45.263V9.04688H46.4818V13.7812C46.4661 15.375 47.6224 16.1172 49.1224 16.1094C49.6302 16.1172 50.013 16.0703 50.2474 16.0312V14.4062C49.9974 14.4219 49.6068 14.4453 49.3724 14.4375C48.8724 14.4297 48.4661 14.2656 48.4661 13.4531V9.04688H50.138V7.51562Z" fill="#8E8E90" fill-opacity="0.7"/>
<path d="M67.7734 7.51562H65.6641L68.1953 11.75L65.6016 16H67.7266L69.4922 12.9375L71.3047 16H73.3984L70.7891 11.75L73.3516 7.51562H71.2422L69.4922 10.6562L67.7734 7.51562Z" fill="#8E8E90" fill-opacity="0.7"/>
<path d="M99.0972 0C92.9685 0 88 4.92483 88 10.9998C88 17.0754 92.9685 22 99.0972 22C105.226 22 110.194 17.0754 110.194 10.9998C110.194 4.92522 105.226 0.000525012 99.0971 0.000525012L99.0972 0ZM104.186 15.8649C103.987 16.1889 103.561 16.2905 103.235 16.093C100.629 14.5143 97.3493 14.1577 93.4865 15.0324C93.1143 15.117 92.7432 14.8856 92.6584 14.5168C92.5732 14.1478 92.8055 13.78 93.1787 13.696C97.4059 12.738 101.032 13.1503 103.957 14.922C104.283 15.1204 104.386 15.542 104.186 15.8651L104.186 15.8649ZM105.545 12.8702C105.294 13.2738 104.761 13.4004 104.355 13.1526C101.372 11.3354 96.8247 10.8091 93.2965 11.8707C92.8389 12.0077 92.3556 11.7521 92.2168 11.2993C92.0789 10.8457 92.337 10.3676 92.7937 10.2297C96.8239 9.01755 101.834 9.6047 105.26 11.6913C105.666 11.9395 105.795 12.4676 105.544 12.8703L105.545 12.8702ZM105.661 9.75129C102.084 7.64556 96.1837 7.45194 92.7689 8.47926C92.2206 8.6441 91.6407 8.33726 91.4745 7.79372C91.3084 7.24992 91.6177 6.67551 92.1664 6.51027C96.0863 5.33072 102.603 5.55861 106.721 7.98169C107.214 8.27185 107.376 8.90326 107.083 9.39151C106.792 9.8804 106.153 10.0416 105.661 9.75129H105.661ZM118.192 10.1548C116.276 9.7019 115.935 9.38403 115.935 8.71609C115.935 8.08507 116.534 7.66041 117.425 7.66041C118.289 7.66041 119.146 7.98288 120.044 8.64674C120.071 8.66684 120.106 8.67484 120.139 8.66959C120.173 8.6646 120.202 8.64634 120.222 8.61889L121.157 7.31166C121.196 7.2578 121.185 7.18359 121.134 7.14247C120.065 6.29222 118.861 5.87885 117.454 5.87885C115.385 5.87885 113.94 7.1095 113.94 8.8703C113.94 10.7585 115.186 11.4271 117.341 11.9432C119.174 12.3618 119.484 12.7125 119.484 13.3395C119.484 14.0342 118.858 14.4661 117.851 14.4661C116.732 14.4661 115.82 14.0927 114.8 13.2167C114.774 13.195 114.74 13.1851 114.708 13.187C114.674 13.1897 114.643 13.2052 114.621 13.2308L113.572 14.4683C113.528 14.5197 113.534 14.5964 113.585 14.6408C114.772 15.6915 116.233 16.2465 117.808 16.2465C120.038 16.2465 121.478 15.0391 121.478 13.1703C121.482 11.5927 120.529 10.7192 118.196 10.1565L118.192 10.1548ZM126.522 8.2817C125.556 8.2817 124.763 8.65895 124.109 9.43196V8.56187C124.109 8.49318 124.053 8.43722 123.984 8.43722H122.268C122.199 8.43722 122.143 8.49318 122.143 8.56187V18.2298C122.143 18.2985 122.199 18.3544 122.268 18.3544H123.984C124.053 18.3544 124.109 18.2985 124.109 18.2298V15.178C124.763 15.9052 125.556 16.2605 126.522 16.2605C128.317 16.2605 130.135 14.8905 130.135 12.2716C130.137 9.65198 128.319 8.28157 126.524 8.28157L126.522 8.2817ZM128.14 12.2716C128.14 13.6052 127.311 14.5358 126.124 14.5358C124.951 14.5358 124.066 13.5629 124.066 12.2716C124.066 10.9804 124.951 10.0073 126.124 10.0073C127.292 10.0072 128.14 10.9592 128.14 12.2714L128.14 12.2716ZM134.793 8.2817C132.481 8.2817 130.67 10.0466 130.67 12.3001C130.67 14.529 132.469 16.2753 134.765 16.2753C137.086 16.2753 138.903 14.5164 138.903 12.2716C138.903 10.0345 137.098 8.28196 134.793 8.28196L134.793 8.2817ZM134.793 14.5491C133.564 14.5491 132.636 13.5696 132.636 12.2709C132.636 10.9667 133.531 10.0203 134.765 10.0203C136.003 10.0203 136.936 10.9998 136.936 12.2994C136.936 13.6034 136.035 14.5491 134.794 14.5491H134.793ZM143.84 8.43723H141.952V6.52393C141.952 6.45537 141.896 6.39941 141.827 6.39941H140.112C140.042 6.39941 139.986 6.45537 139.986 6.52393V8.43723H139.161C139.092 8.43723 139.036 8.49318 139.036 8.56188V10.0235C139.036 10.092 139.092 10.1481 139.161 10.1481H139.986V13.9299C139.986 15.4582 140.753 16.2331 142.267 16.2331C142.882 16.2331 143.393 16.1071 143.874 15.8366C143.913 15.815 143.937 15.7732 143.937 15.7288V14.337C143.937 14.294 143.915 14.2534 143.878 14.231C143.84 14.2077 143.794 14.2065 143.755 14.2253C143.425 14.3902 143.105 14.4662 142.748 14.4662C142.198 14.4662 141.952 14.2185 141.952 13.6633V10.1488H143.84C143.91 10.1488 143.965 10.0928 143.965 10.0241V8.56268C143.968 8.49399 143.912 8.43803 143.842 8.43803L143.84 8.43723ZM150.418 8.44472V8.20972C150.418 7.5184 150.686 7.21012 151.285 7.21012C151.643 7.21012 151.93 7.28052 152.252 7.38692C152.292 7.39928 152.333 7.3931 152.365 7.36958C152.398 7.34607 152.417 7.30837 152.417 7.26844V5.83537C152.417 5.78059 152.382 5.73213 152.328 5.71597C151.988 5.61574 151.554 5.51289 150.902 5.51289C149.318 5.51289 148.48 6.39743 148.48 8.06995V8.42986H147.656C147.587 8.42986 147.53 8.48582 147.53 8.55439V10.0234C147.53 10.092 147.587 10.1481 147.656 10.1481H148.48V15.9814C148.48 16.0501 148.536 16.106 148.605 16.106H150.321C150.39 16.106 150.447 16.0501 150.447 15.9814V10.1485H152.049L154.502 15.9803C154.224 16.5931 153.95 16.715 153.576 16.715C153.274 16.715 152.955 16.6255 152.63 16.449C152.599 16.4323 152.563 16.4296 152.53 16.4397C152.497 16.4511 152.47 16.4753 152.456 16.5068L151.874 17.7713C151.847 17.8311 151.87 17.9013 151.928 17.9322C152.535 18.2581 153.083 18.3972 153.761 18.3972C155.027 18.3972 155.728 17.8123 156.345 16.2387L159.321 8.61494C159.336 8.57659 159.332 8.53324 159.308 8.49922C159.285 8.46546 159.246 8.44511 159.205 8.44511H157.419C157.365 8.44511 157.317 8.47886 157.3 8.52865L155.47 13.709L153.466 8.52523C153.448 8.47702 153.401 8.4451 153.349 8.4451H150.418L150.418 8.44472ZM146.604 8.43723H144.889C144.82 8.43723 144.763 8.49318 144.763 8.56188V15.9814C144.763 16.0501 144.82 16.106 144.889 16.106H146.604C146.674 16.106 146.73 16.0501 146.73 15.9814V8.5624C146.73 8.54601 146.727 8.52977 146.721 8.51462C146.714 8.49947 146.705 8.48571 146.693 8.47413C146.682 8.46254 146.668 8.45337 146.653 8.44712C146.637 8.44088 146.621 8.43769 146.604 8.43775L146.604 8.43723ZM145.756 5.05895C145.077 5.05895 144.525 5.60432 144.525 6.27804C144.525 6.95215 145.077 7.49819 145.756 7.49819C146.436 7.49819 146.987 6.95215 146.987 6.27804C146.987 5.60446 146.436 5.05895 145.757 5.05895H145.756ZM160.786 10.8227C160.107 10.8227 159.579 10.2822 159.579 9.62584C159.579 8.96947 160.114 8.42278 160.793 8.42278C161.472 8.42278 162 8.96316 162 9.61901C162 10.2754 161.465 10.8227 160.786 10.8227H160.786ZM160.793 8.54178C160.174 8.54178 159.707 9.0291 159.707 9.62584C159.707 10.2223 160.171 10.7031 160.787 10.7031C161.405 10.7031 161.873 10.2162 161.873 9.61901C161.873 9.02254 161.408 8.54178 160.793 8.54178H160.793ZM161.061 9.74208L161.402 10.216H161.114L160.807 9.78124H160.542V10.216H160.301V8.95975H160.866C161.161 8.95975 161.355 9.1091 161.355 9.36051C161.356 9.56648 161.235 9.69231 161.062 9.74209H161.061V9.74208ZM160.857 9.1753H160.542V9.57265H160.857C161.013 9.57265 161.107 9.4966 161.107 9.37379C161.107 9.24453 161.013 9.17531 160.857 9.17531H160.857V9.1753Z" fill="#F4A9A9" fill-opacity="0.91"/>
</svg>
