<svg width="162" height="22" viewBox="0 0 162 22" fill="none" xmlns="http://www.w3.org/2000/svg">
<path d="M1.24385 19.168H3.22785V14.656H3.32385C3.62785 15.28 4.28385 16.144 5.75585 16.16C7.75585 16.144 9.24385 14.56 9.24385 11.776C9.24385 8.944 7.70785 7.408 5.75585 7.392C4.25185 7.408 3.62785 8.304 3.32385 8.896H3.19585V7.52H1.24385V19.168ZM3.19585 11.744C3.19585 10.112 3.89985 9.04 5.21185 9.024C6.53985 9.04 7.22785 10.176 7.22785 11.744C7.22785 13.36 6.52385 14.512 5.21185 14.528C3.91585 14.512 3.19585 13.408 3.19585 11.744ZM12.457 4.672H10.473V16H12.457V4.672ZM13.6619 13.632C13.6459 15.28 14.8779 16.176 16.4779 16.16C17.8219 16.176 18.6219 15.536 18.9739 14.848H19.0379V16H20.9579V10.336C20.9579 8.064 19.1019 7.408 17.5019 7.392C15.3739 7.408 14.0779 8.496 13.9179 9.92H15.8699C16.0139 9.328 16.5579 8.928 17.4379 8.928C18.4299 8.928 18.9739 9.408 18.9739 10.24V10.928C18.6219 10.944 17.4059 10.992 16.7979 11.04C15.2299 11.152 13.6459 11.696 13.6619 13.632ZM15.5819 13.6C15.5659 12.848 16.1739 12.448 17.1179 12.384C17.5179 12.336 18.5899 12.272 18.9739 12.256V12.96C18.9899 13.904 18.2219 14.704 16.9899 14.72C16.1739 14.704 15.5659 14.32 15.5819 13.6ZM23.3966 19.168C24.9966 19.184 25.8926 18.384 26.3726 17.024L29.7966 7.52H27.6846L25.7006 13.92H25.6046L23.6526 7.52H21.5406L24.6126 16.192L24.4526 16.64C24.1166 17.536 23.7006 17.568 23.2046 17.568C22.9646 17.568 22.6126 17.568 22.3726 17.536V19.136C22.6286 19.168 23.0126 19.184 23.3966 19.168ZM32.6914 4.672H30.7074V16H32.6914V4.672ZM34.2803 16H36.2643V7.52H34.2803V16ZM34.1203 5.216C34.1203 5.824 34.6483 6.304 35.2723 6.304C35.9123 6.304 36.4243 5.824 36.4243 5.216C36.4243 4.624 35.9123 4.144 35.2723 4.128C34.6483 4.144 34.1203 4.624 34.1203 5.216ZM42.6532 9.92H44.5412C44.3972 8.4 43.1492 7.408 41.1172 7.392C39.0532 7.408 37.6932 8.432 37.6932 10.016C37.6932 11.216 38.5092 12.032 40.0932 12.352L41.4692 12.64C42.3012 12.832 42.6852 13.152 42.6852 13.632C42.6852 14.272 42.0612 14.656 41.0852 14.656C40.1732 14.656 39.6132 14.304 39.4852 13.568H37.4692C37.6612 15.2 38.9412 16.176 41.1172 16.16C43.3092 16.176 44.7172 15.056 44.7012 13.472C44.7172 12.256 43.9332 11.504 42.3332 11.168L40.8932 10.848C40.0292 10.656 39.6772 10.336 39.6772 9.888C39.6772 9.312 40.3012 8.88 41.1492 8.896C41.9972 8.88 42.5252 9.296 42.6532 9.92ZM50.1345 7.52H48.4705V5.472H46.4865V7.52H45.2705V9.056H46.4865V13.792C46.4705 15.376 47.6225 16.112 49.1105 16.128C49.6225 16.112 50.0065 16.08 50.2625 16.032V14.4C49.9905 14.416 49.6065 14.448 49.3665 14.432C48.8705 14.432 48.4705 14.272 48.4705 13.44V9.056H50.1345V7.52Z" fill="white"/>
<path d="M67.7873 7.52H65.6753L68.2033 11.744L65.6113 16H67.7233L69.4833 12.928L71.3073 16H73.3873L70.7953 11.744L73.3553 7.52H71.2433L69.4833 10.656L67.7873 7.52Z" fill="white"/>
<path d="M99.0972 0C92.9685 0 88 4.92483 88 10.9998C88 17.0754 92.9685 22 99.0972 22C105.226 22 110.194 17.0754 110.194 10.9998C110.194 4.92522 105.226 0.000525012 99.0971 0.000525012L99.0972 0V0ZM104.186 15.8649C103.987 16.1889 103.561 16.2905 103.235 16.093C100.629 14.5143 97.3493 14.1577 93.4865 15.0324C93.1143 15.117 92.7432 14.8856 92.6584 14.5168C92.5732 14.1478 92.8055 13.78 93.1787 13.696C97.4059 12.738 101.032 13.1503 103.957 14.922C104.283 15.1204 104.386 15.542 104.186 15.8651L104.186 15.8649V15.8649ZM105.545 12.8702C105.294 13.2738 104.761 13.4004 104.355 13.1526C101.372 11.3354 96.8247 10.8091 93.2965 11.8707C92.8389 12.0077 92.3556 11.7521 92.2168 11.2993C92.0789 10.8457 92.337 10.3676 92.7937 10.2297C96.8239 9.01755 101.834 9.6047 105.26 11.6913C105.666 11.9395 105.795 12.4676 105.544 12.8703L105.545 12.8702ZM105.661 9.75129C102.084 7.64556 96.1837 7.45194 92.7689 8.47926C92.2206 8.6441 91.6407 8.33726 91.4745 7.79372C91.3084 7.24992 91.6177 6.67551 92.1664 6.51027C96.0863 5.33072 102.603 5.55861 106.721 7.98169C107.214 8.27185 107.376 8.90326 107.083 9.3915C106.792 9.8804 106.153 10.0416 105.661 9.75129H105.661V9.75129ZM118.192 10.1548C116.276 9.7019 115.935 9.38403 115.935 8.71609C115.935 8.08507 116.534 7.66041 117.425 7.66041C118.289 7.66041 119.146 7.98288 120.044 8.64674C120.071 8.66684 120.106 8.67484 120.139 8.66959C120.173 8.6646 120.202 8.64634 120.222 8.61889L121.157 7.31166C121.196 7.2578 121.185 7.18359 121.134 7.14247C120.065 6.29223 118.861 5.87885 117.454 5.87885C115.385 5.87885 113.94 7.1095 113.94 8.8703C113.94 10.7585 115.186 11.4271 117.341 11.9432C119.174 12.3618 119.484 12.7125 119.484 13.3395C119.484 14.0342 118.858 14.4661 117.851 14.4661C116.732 14.4661 115.82 14.0927 114.8 13.2167C114.774 13.195 114.74 13.1851 114.708 13.187C114.674 13.1897 114.643 13.2052 114.621 13.2308L113.572 14.4683C113.528 14.5197 113.534 14.5964 113.585 14.6408C114.772 15.6915 116.233 16.2465 117.808 16.2465C120.038 16.2465 121.478 15.0391 121.478 13.1703C121.482 11.5927 120.529 10.7192 118.196 10.1565L118.192 10.1548V10.1548ZM126.522 8.2817C125.556 8.2817 124.763 8.65895 124.109 9.43196V8.56187C124.109 8.49318 124.053 8.43722 123.984 8.43722H122.268C122.199 8.43722 122.143 8.49318 122.143 8.56187V18.2298C122.143 18.2985 122.199 18.3544 122.268 18.3544H123.984C124.053 18.3544 124.109 18.2985 124.109 18.2298V15.178C124.763 15.9052 125.556 16.2605 126.522 16.2605C128.317 16.2605 130.135 14.8905 130.135 12.2716C130.137 9.65198 128.319 8.28157 126.524 8.28157L126.522 8.2817ZM128.14 12.2716C128.14 13.6052 127.311 14.5358 126.124 14.5358C124.951 14.5358 124.066 13.5629 124.066 12.2716C124.066 10.9804 124.951 10.0073 126.124 10.0073C127.292 10.0072 128.14 10.9592 128.14 12.2714L128.14 12.2716V12.2716ZM134.793 8.2817C132.481 8.2817 130.67 10.0466 130.67 12.3001C130.67 14.529 132.469 16.2753 134.765 16.2753C137.086 16.2753 138.903 14.5164 138.903 12.2716C138.903 10.0345 137.098 8.28196 134.793 8.28196L134.793 8.2817V8.2817ZM134.793 14.5491C133.564 14.5491 132.636 13.5696 132.636 12.2709C132.636 10.9667 133.531 10.0203 134.765 10.0203C136.003 10.0203 136.936 10.9998 136.936 12.2994C136.936 13.6034 136.035 14.5491 134.794 14.5491H134.793V14.5491ZM143.84 8.43723H141.952V6.52393C141.952 6.45537 141.896 6.39941 141.827 6.39941H140.112C140.042 6.39941 139.986 6.45537 139.986 6.52393V8.43723H139.161C139.092 8.43723 139.036 8.49318 139.036 8.56188V10.0235C139.036 10.092 139.092 10.1481 139.161 10.1481H139.986V13.9299C139.986 15.4582 140.753 16.2331 142.267 16.2331C142.882 16.2331 143.393 16.1071 143.874 15.8366C143.913 15.815 143.937 15.7732 143.937 15.7288V14.337C143.937 14.294 143.915 14.2534 143.878 14.231C143.84 14.2077 143.794 14.2065 143.755 14.2253C143.425 14.3902 143.105 14.4662 142.748 14.4662C142.198 14.4662 141.952 14.2185 141.952 13.6633V10.1488H143.84C143.91 10.1488 143.965 10.0928 143.965 10.0241V8.56268C143.968 8.49398 143.912 8.43803 143.842 8.43803L143.84 8.43723V8.43723ZM150.418 8.44472V8.20972C150.418 7.5184 150.686 7.21012 151.285 7.21012C151.643 7.21012 151.93 7.28052 152.252 7.38692C152.292 7.39928 152.333 7.3931 152.365 7.36958C152.398 7.34607 152.417 7.30837 152.417 7.26844V5.83537C152.417 5.78059 152.382 5.73213 152.328 5.71597C151.988 5.61574 151.554 5.51289 150.902 5.51289C149.318 5.51289 148.48 6.39743 148.48 8.06995V8.42986H147.656C147.587 8.42986 147.53 8.48582 147.53 8.55439V10.0234C147.53 10.092 147.587 10.1481 147.656 10.1481H148.48V15.9814C148.48 16.0501 148.536 16.106 148.605 16.106H150.321C150.39 16.106 150.447 16.0501 150.447 15.9814V10.1485H152.048L154.502 15.9803C154.224 16.5931 153.95 16.715 153.576 16.715C153.274 16.715 152.955 16.6255 152.63 16.449C152.599 16.4323 152.563 16.4296 152.53 16.4397C152.497 16.4511 152.47 16.4753 152.456 16.5068L151.874 17.7713C151.847 17.8311 151.87 17.9013 151.928 17.9322C152.535 18.2581 153.083 18.3972 153.761 18.3972C155.027 18.3972 155.728 17.8123 156.345 16.2387L159.321 8.61494C159.336 8.57659 159.332 8.53324 159.308 8.49922C159.285 8.46546 159.246 8.44511 159.205 8.44511H157.419C157.365 8.44511 157.317 8.47886 157.3 8.52865L155.47 13.709L153.466 8.52523C153.448 8.47702 153.401 8.4451 153.349 8.4451H150.418L150.418 8.44472V8.44472ZM146.604 8.43723H144.889C144.82 8.43723 144.763 8.49318 144.763 8.56188V15.9814C144.763 16.0501 144.82 16.106 144.889 16.106H146.604C146.674 16.106 146.73 16.0501 146.73 15.9814V8.5624C146.73 8.54601 146.727 8.52977 146.721 8.51462C146.714 8.49947 146.705 8.48571 146.693 8.47413C146.682 8.46254 146.668 8.45337 146.653 8.44712C146.637 8.44088 146.621 8.43769 146.604 8.43775L146.604 8.43723ZM145.756 5.05895C145.077 5.05895 144.525 5.60432 144.525 6.27804C144.525 6.95215 145.077 7.49819 145.756 7.49819C146.436 7.49819 146.987 6.95215 146.987 6.27804C146.987 5.60446 146.436 5.05895 145.757 5.05895H145.756V5.05895ZM160.786 10.8227C160.107 10.8227 159.579 10.2822 159.579 9.62584C159.579 8.96947 160.114 8.42277 160.793 8.42277C161.472 8.42277 162 8.96316 162 9.61901C162 10.2754 161.465 10.8227 160.786 10.8227H160.786V10.8227ZM160.793 8.54178C160.174 8.54178 159.707 9.0291 159.707 9.62584C159.707 10.2223 160.171 10.7031 160.787 10.7031C161.405 10.7031 161.873 10.2162 161.873 9.61901C161.873 9.02254 161.408 8.54178 160.793 8.54178H160.793V8.54178ZM161.061 9.74208L161.402 10.216H161.114L160.807 9.78124H160.542V10.216H160.301V8.95975H160.866C161.161 8.95975 161.355 9.1091 161.355 9.36051C161.356 9.56648 161.235 9.69231 161.062 9.74209H161.061V9.74208ZM160.857 9.1753H160.542V9.57265H160.857C161.013 9.57265 161.107 9.4966 161.107 9.37378C161.107 9.24453 161.013 9.17531 160.857 9.17531H160.857V9.1753Z" fill="#F4A9A9" fill-opacity="0.91"/>
</svg>
